<svg xmlns="http://www.w3.org/2000/svg" version="1.1" xmlns:xlink="http://www.w3.org/1999/xlink" xmlns:svgjs="http://svgjs.dev/svgjs" width="1440" height="560" preserveAspectRatio="none" viewBox="0 0 1440 560"><g mask="url(&quot;#SvgjsMask1355&quot;)" fill="none"><rect width="1440" height="560" x="0" y="0" fill="rgba(17, 27, 34, 1)"></rect><use xlink:href="#SvgjsG1364" transform="translate(0, 0)" fill="rgba(16, 100, 116, 1)"></use><use xlink:href="#SvgjsG1364" transform="translate(720, 0)" fill="rgba(16, 100, 116, 1)"></use></g><defs><mask id="SvgjsMask1355"><rect width="1440" height="560" fill="#ffffff"></rect></mask><g id="SvgjsG1361"><path d="M7.713 15.485C3.459 15.485 0 12.025 0 7.768 0 3.513 3.459 0.051 7.713 0.051S15.432 3.513 15.432 7.768c0 4.257-3.465 7.716-7.719 7.717z m0-1.91c3.201 0 5.81-2.604 5.81-5.809 0-3.199-2.61-5.807-5.81-5.807-3.202 0-5.804 2.609-5.804 5.807-0.001 3.206 2.602 5.809 5.804 5.809z"></path><path d="M7.753 8.787a0.574 0.574 0 0 1-0.554-0.042 0.578 0.578 0 0 1-0.259-0.399L6.931 3.862a0.58 0.58 0 0 1 1.162 0v3.478l2.975-1.4a0.578 0.578 0 0 1 0.773 0.275c0.138 0.292 0.011 0.637-0.276 0.774l-3.81 1.798z"></path></g><g id="SvgjsG1356"><path d="M11.986 8.245a46.749 46.749 0 0 1-0.521-0.411c-0.146-0.116-0.293-0.233-0.44-0.348-0.88-0.688-1.797-1.316-2.816-1.407A2.815 2.815 0 0 0 7.954 6.067c-0.086 0-0.171 0.011-0.255 0.018-1.022 0.093-1.942 0.717-2.826 1.408l0.093 0.073c0.108 0.085 0.213 0.168 0.32 0.252C6.165 7.137 7.021 6.576 7.954 6.576c0.93 0 1.784 0.558 2.66 1.236a35.098 35.098 0 0 1 0.535 0.421c0.142 0.113 0.283 0.226 0.426 0.338C12.532 9.32 13.531 10 14.658 10c0.437 0 0.854-0.104 1.257-0.273v-0.557c-0.409 0.197-0.825 0.32-1.257 0.32-0.934 0-1.792-0.563-2.672-1.245z"></path><path d="M11.574 7.496c0.029 0.023 0.059 0.046 0.088 0.07 0.109 0.087 0.216 0.17 0.325 0.256 0.318-0.246 0.635-0.476 0.952-0.67v1.37c0.17 0.111 0.34 0.214 0.51 0.301V6.878c0.315-0.147 0.634-0.248 0.96-0.283v2.537c0.078 0.01 0.157 0.018 0.237 0.018 0.091 0 0.183-0.009 0.273-0.021V6.592c0.34 0.037 0.67 0.144 0.996 0.3V6.336C15.514 6.17 15.099 6.067 14.664 6.067c-1.128 0-2.13 0.68-3.09 1.429z m-7.248 1.08c-0.034-0.027-0.068-0.053-0.102-0.08-0.104-0.083-0.207-0.162-0.31-0.245-0.877 0.678-1.733 1.238-2.665 1.238C0.82 9.49 0.407 9.36 0 9.152v0.562C0.401 9.891 0.815 10 1.249 10c1.124 0 2.122-0.677 3.077-1.423z"></path><path d="M0.989 9.133c0.084 0.011 0.17 0.019 0.254 0.02 0.086 0 0.171-0.008 0.256-0.02V6.592c0.329 0.035 0.65 0.136 0.967 0.285-0.002 0.012-0.007 0.023-0.007 0.036v1.903a5.818 5.818 0 0 0 0.51-0.303V7.152c0.487 0.3 0.971 0.684 1.467 1.08C5.525 9.101 6.652 10 7.948 10c1.123 0 2.121-0.675 3.078-1.42l-0.106-0.084c-0.103-0.082-0.205-0.161-0.306-0.242-0.313 0.242-0.622 0.466-0.934 0.658V7.564A5.816 5.816 0 0 0 9.17 7.261v1.893c0 0.01 0.004 0.019 0.005 0.029-0.316 0.149-0.637 0.252-0.965 0.288V6.937a1.97 1.97 0 0 0-0.267-0.02c-0.082 0-0.163 0.008-0.243 0.017v2.541c-0.33-0.035-0.652-0.136-0.969-0.283 0.002-0.013 0.006-0.024 0.006-0.039V7.248a5.629 5.629 0 0 0-0.51 0.302v1.368c-0.49-0.299-0.976-0.686-1.474-1.083C3.666 6.966 2.539 6.067 1.243 6.067c-0.432 0-0.844 0.096-1.243 0.251v0.55c0.324-0.144 0.652-0.244 0.989-0.278V9.133z"></path></g><g id="SvgjsG1359"><path d="M14.704 13.605c0 0.355-0.294 0.64-0.646 0.64H3.52v0.432h10.536a1.075 1.075 0 0 0 1.082-1.069l-0.432-0.003z m-3.147-9.808A1.059 1.059 0 1 0 11.552 1.68a1.059 1.059 0 0 0 0.005 2.118M4.848 12.912L1.323 9.376v0.619l3.28 3.29c0.376 0.408 1.021-0.064 1.021-0.064l-0.309-0.331s-0.304 0.2-0.464 0.032l-0.006-0.012z m0.112-6.664H1.355v0.432H4.96v-0.432z m9.744-1.029l0.411 0.173L11.024 13.629h-0.454L14.704 5.219z"></path><path d="M7.912 4.584l-1.648 1.901a0.531 0.531 0 1 1-0.765-0.736l1.776-2.045a0.533 0.533 0 0 1 0.41-0.192H10.256a0.688 0.688 0 0 1 0.485 0.195L12.379 5.344l1.36-1.355a0.549 0.549 0 0 1 0.779 0.768L12.88 6.411c-0.496 0.496-0.896 0.074-0.896 0.074l-1.008-1.008-1.568 1.814 1.44 1.44s0.301 0.282 0.128 0.842L10.17 13.168a0.688 0.688 0 1 1-1.333-0.31l0.662-2.949-1.632-1.591-1.408 1.568s-0.229 0.28-0.832 0.26l-2.851 0.006a0.688 0.688 0 0 1-0.68-0.536 0.672 0.672 0 0 1 0.685-0.832l2.453 0.011 3.632-4.208-0.949-0.003z"></path></g><g id="SvgjsG1363"><path d="M7.493 4.681c1.279 0 2.312-1.051 2.312-2.343C9.805 1.045 8.772 0 7.493 0S5.18 1.045 5.18 2.338c0 1.291 1.034 2.342 2.313 2.343z m2.249 0.569c1.058 0.038 1.503 0.894 1.503 0.895l3.415 4.737a1.331 1.331 0 0 1 0.224 0.745c0 0.737-0.59 1.335-1.319 1.334-0.174 0-0.333-0.039-0.484-0.096l-2.061-0.582v2.079H3.864V12.283l-2.061 0.581a1.308 1.308 0 0 1-0.485 0.097C0.589 12.962 0 12.363 0 11.626c0-0.278 0.082-0.535 0.229-0.745l3.413-4.736s0.448-0.857 1.501-0.895H9.742zM7.443 12.91l2.67-0.897-0.058-0.012c-1.844-0.547-1.127-3.009 0.712-2.459l0.253 0.089v-2.779l-3.577 1.18-3.579-1.18V9.63l0.252-0.089c1.843-0.55 2.561 1.913 0.717 2.459l-0.06 0.013 2.67 0.897zM14.793 16c0.183 0 0.33-0.148 0.33-0.333a0.33 0.33 0 0 0-0.33-0.333H0.352c-0.179 0-0.329 0.147-0.329 0.333 0 0.185 0.15 0.333 0.329 0.333h14.441z"></path></g><g id="SvgjsG1357"><path d="M10.596 3.917a0.64 0.64 0 0 0-0.639 0.641c0 0.354 0.287 0.64 0.639 0.64a0.639 0.639 0 0 0 0.639-0.64 0.639 0.639 0 0 0-0.639-0.641z m-0.151 5.25a0.642 0.642 0 0 0 0.643 0.641c0.352 0 0.638-0.286 0.637-0.64a0.639 0.639 0 0 0-0.637-0.641 0.641 0.641 0 0 0-0.642 0.641z m-4.678-5.945a0.641 0.641 0 0 0 0 1.282 0.64 0.64 0 0 0 0.642-0.64 0.641 0.641 0 0 0-0.642-0.642z"></path><path d="M8.659 0C5.904 0 3.363 2.068 2.835 4.347c-0.119 0.507-0.25 1.83-0.25 1.829L1.316 9.37A0.488 0.488 0 0 0 1.28 9.561a0.491 0.491 0 0 0 0.491 0.489h0.814v1.697c0 1.323 1.072 2.395 2.394 2.395h0.951V16H12.408V10.847c1.413-1.111 2.32-2.838 2.32-4.775C14.728 2.718 12.01 0 8.659 0z m-4.583 7.387c-0.372 0-0.675-0.304-0.675-0.679a0.677 0.677 0 0 1 0.675-0.677c0.375 0 0.68 0.303 0.68 0.677a0.68 0.68 0 0 1-0.68 0.679z m8.959-0.918l-0.631 0.632-0.77-0.543c-0.148 0.077-0.304 0.139-0.467 0.18l-0.142 0.838h0.294l0.079 0.448c0.031 0.008 0.062 0.013 0.092 0.024 0.079 0.029 0.152 0.067 0.22 0.11l0.355-0.25 0.292 0.291-0.262 0.371c0.056 0.1 0.101 0.206 0.125 0.318l0.429 0.074v0.412l-0.446 0.076c-0.009 0.032-0.013 0.063-0.024 0.094a1.147 1.147 0 0 1-0.112 0.223l0.251 0.353-0.292 0.291-0.369-0.262a1.149 1.149 0 0 1-0.318 0.126l-0.075 0.429H10.851l-0.074-0.448c-0.032-0.009-0.064-0.013-0.096-0.025a1.174 1.174 0 0 1-0.221-0.11l-0.356 0.252L9.815 10.08l0.262-0.37a1.151 1.151 0 0 1-0.125-0.319l-0.431-0.074v-0.411l0.45-0.077c0.008-0.032 0.013-0.063 0.025-0.094 0.029-0.079 0.066-0.152 0.109-0.22l-0.251-0.356 0.291-0.291 0.371 0.262a1.174 1.174 0 0 1 0.317-0.125l0.064-0.372h-0.776L9.96 6.704c-0.035-0.011-0.07-0.02-0.104-0.034a2.221 2.221 0 0 1-0.352-0.168l-0.744 0.524-0.63-0.632 0.542-0.767a2.184 2.184 0 0 1-0.181-0.469l-0.894-0.154V4.27l-0.449 0.078c-0.007 0.022-0.009 0.044-0.017 0.065a1.402 1.402 0 0 1-0.109 0.223l0.345 0.489-0.416 0.414-0.506-0.357a1.438 1.438 0 0 1-0.294 0.116l-0.102 0.586-0.584 0-0.106-0.611c-0.02-0.007-0.042-0.009-0.062-0.017a1.43 1.43 0 0 1-0.226-0.11l-0.49 0.345-0.414-0.415 0.359-0.508a1.485 1.485 0 0 1-0.112-0.291L3.824 4.176V3.589l0.608-0.105c0.007-0.022 0.012-0.043 0.02-0.063 0.029-0.08 0.068-0.154 0.109-0.225l-0.345-0.488 0.413-0.415 0.508 0.358a1.439 1.439 0 0 1 0.295-0.117l0.102-0.586h0.584L6.224 2.56c0.021 0.007 0.043 0.008 0.063 0.016 0.08 0.03 0.154 0.069 0.225 0.11l0.489-0.344 0.415 0.414-0.359 0.507a1.397 1.397 0 0 1 0.115 0.293l0.586 0.101v0.427l0.768-0.132c0.011-0.035 0.02-0.07 0.033-0.105 0.046-0.126 0.104-0.243 0.17-0.355l-0.528-0.74 0.634-0.633 0.77 0.544a2.192 2.192 0 0 1 0.468-0.181l0.151-0.894h0.894l0.162 0.928c0.035 0.01 0.069 0.02 0.104 0.033 0.124 0.046 0.241 0.104 0.352 0.168l0.743-0.523 0.629 0.631-0.542 0.77c0.077 0.148 0.138 0.304 0.18 0.466l0.895 0.154v0.894l-0.929 0.16c-0.011 0.035-0.02 0.07-0.032 0.104-0.046 0.125-0.104 0.242-0.17 0.353l0.525 0.743z"></path></g><g id="SvgjsG1362"><path d="M2.796 14.654h-1.184C0.792 14.653 0.001 14.052 0 13.006c0 0 0.001-7.471 0-7.494 0.001-0.926 0.773-1.629 1.612-1.63h1.184v10.772z m7.448-10.754V2.352c0.004-0.558-0.49-0.914-1.093-0.91 0 0-2.303-0.004-2.294 0-0.6-0.004-1.103 0.352-1.102 0.91v1.548H3.597v10.772h8.823V3.9h-2.176z m-0.81 0H6.547v-1.593h2.887v1.593z m3.779 10.754h1.184c0.814-0.002 1.605-0.602 1.603-1.648 0 0 0.003-7.471 0-7.494 0.003-0.926-0.77-1.63-1.602-1.631h-1.184v10.772z"></path></g><g id="SvgjsG1358"><path d="M9.46 6.313c-1.577 0-2.86 1.283-2.86 2.86s1.283 2.86 2.86 2.86 2.86-1.283 2.86-2.86-1.283-2.86-2.86-2.86z"></path><path d="M13.26 3.839l-0.624-1.912h-6.352L5.661 3.839H0v10.668h16v-10.668H13.26zM3.744 6.743H1.543v-1.176H3.744v1.176z m5.716 6.624c-2.312 0-4.193-1.881-4.193-4.194s1.881-4.194 4.193-4.193 4.193 1.881 4.194 4.193-1.88 4.194-4.193 4.194z"></path></g><g id="SvgjsG1360"><path d="M3.312 10.09l3.972 2.294-0.394 0.681L2.919 10.771 3.312 10.09z"></path><path d="M10.944 14.37c1.147-1.084 1.874-2.605 1.874-4.304 0-2.093-1.099-3.981-2.809-5.041l1.915-3.315-0.3-0.174L12.096 0.715 10.858 0 10.384 0.82l-0.317-0.183-4.708 8.156 0.411 0.238-0.584 1.01 1.035 0.597 0.584-1.01 0.41 0.237 1.98-3.429c1.214 0.774 1.993 2.13 1.993 3.63 0 2.373-1.932 4.304-4.305 4.304H3.413V16h9.766V14.37H10.944z"></path></g><g id="SvgjsG1364"><use xlink:href="#SvgjsG1356" transform="translate(0, 0) scale(3)" fill="rgba(16, 100, 116, 1)"></use><use xlink:href="#SvgjsG1356" transform="translate(0, 72) scale(3)" fill="rgba(16, 100, 116, 1)"></use><use xlink:href="#SvgjsG1356" transform="translate(0, 144) scale(3)" fill="rgba(16, 100, 116, 1)"></use><use xlink:href="#SvgjsG1357" transform="translate(0, 216) scale(3)" fill="rgba(16, 100, 116, 1)"></use><use xlink:href="#SvgjsG1358" transform="translate(0, 288) scale(3)" fill="rgba(16, 100, 116, 1)"></use><use xlink:href="#SvgjsG1359" transform="translate(0, 360) scale(3)" fill="rgba(16, 100, 116, 1)"></use><use xlink:href="#SvgjsG1359" transform="translate(0, 432) scale(3)" fill="rgba(16, 100, 116, 1)"></use><use xlink:href="#SvgjsG1360" transform="translate(0, 504) scale(3)" fill="rgba(16, 100, 116, 1)"></use><use xlink:href="#SvgjsG1360" transform="translate(72, 0) scale(3)" fill="rgba(16, 100, 116, 1)"></use><use xlink:href="#SvgjsG1360" transform="translate(72, 72) scale(3)" fill="rgba(16, 100, 116, 1)"></use><use xlink:href="#SvgjsG1356" transform="translate(72, 144) scale(3)" fill="rgba(16, 100, 116, 1)"></use><use xlink:href="#SvgjsG1361" transform="translate(72, 216) scale(3)" fill="rgba(16, 100, 116, 1)"></use><use xlink:href="#SvgjsG1359" transform="translate(72, 288) scale(3)" fill="rgba(16, 100, 116, 1)"></use><use xlink:href="#SvgjsG1362" transform="translate(72, 360) scale(3)" fill="rgba(16, 100, 116, 1)"></use><use xlink:href="#SvgjsG1361" transform="translate(72, 432) scale(3)" fill="rgba(16, 100, 116, 1)"></use><use xlink:href="#SvgjsG1359" transform="translate(72, 504) scale(3)" fill="rgba(16, 100, 116, 1)"></use><use xlink:href="#SvgjsG1363" transform="translate(144, 0) scale(3)" fill="rgba(16, 100, 116, 1)"></use><use xlink:href="#SvgjsG1360" transform="translate(144, 72) scale(3)" fill="rgba(16, 100, 116, 1)"></use><use xlink:href="#SvgjsG1361" transform="translate(144, 144) scale(3)" fill="rgba(16, 100, 116, 1)"></use><use xlink:href="#SvgjsG1360" transform="translate(144, 216) scale(3)" fill="rgba(16, 100, 116, 1)"></use><use xlink:href="#SvgjsG1357" transform="translate(144, 288) scale(3)" fill="rgba(16, 100, 116, 1)"></use><use xlink:href="#SvgjsG1358" transform="translate(144, 360) scale(3)" fill="rgba(16, 100, 116, 1)"></use><use xlink:href="#SvgjsG1360" transform="translate(144, 432) scale(3)" fill="rgba(16, 100, 116, 1)"></use><use xlink:href="#SvgjsG1358" transform="translate(144, 504) scale(3)" fill="rgba(16, 100, 116, 1)"></use><use xlink:href="#SvgjsG1363" transform="translate(216, 0) scale(3)" fill="rgba(16, 100, 116, 1)"></use><use xlink:href="#SvgjsG1362" transform="translate(216, 72) scale(3)" fill="rgba(16, 100, 116, 1)"></use><use xlink:href="#SvgjsG1359" transform="translate(216, 144) scale(3)" fill="rgba(16, 100, 116, 1)"></use><use xlink:href="#SvgjsG1362" transform="translate(216, 216) scale(3)" fill="rgba(16, 100, 116, 1)"></use><use xlink:href="#SvgjsG1360" transform="translate(216, 288) scale(3)" fill="rgba(16, 100, 116, 1)"></use><use xlink:href="#SvgjsG1358" transform="translate(216, 360) scale(3)" fill="rgba(16, 100, 116, 1)"></use><use xlink:href="#SvgjsG1357" transform="translate(216, 432) scale(3)" fill="rgba(16, 100, 116, 1)"></use><use xlink:href="#SvgjsG1359" transform="translate(216, 504) scale(3)" fill="rgba(16, 100, 116, 1)"></use><use xlink:href="#SvgjsG1357" transform="translate(288, 0) scale(3)" fill="rgba(16, 100, 116, 1)"></use><use xlink:href="#SvgjsG1358" transform="translate(288, 72) scale(3)" fill="rgba(16, 100, 116, 1)"></use><use xlink:href="#SvgjsG1363" transform="translate(288, 144) scale(3)" fill="rgba(16, 100, 116, 1)"></use><use xlink:href="#SvgjsG1363" transform="translate(288, 216) scale(3)" fill="rgba(16, 100, 116, 1)"></use><use xlink:href="#SvgjsG1360" transform="translate(288, 288) scale(3)" fill="rgba(16, 100, 116, 1)"></use><use xlink:href="#SvgjsG1362" transform="translate(288, 360) scale(3)" fill="rgba(16, 100, 116, 1)"></use><use xlink:href="#SvgjsG1358" transform="translate(288, 432) scale(3)" fill="rgba(16, 100, 116, 1)"></use><use xlink:href="#SvgjsG1357" transform="translate(288, 504) scale(3)" fill="rgba(16, 100, 116, 1)"></use><use xlink:href="#SvgjsG1363" transform="translate(360, 0) scale(3)" fill="rgba(16, 100, 116, 1)"></use><use xlink:href="#SvgjsG1357" transform="translate(360, 72) scale(3)" fill="rgba(16, 100, 116, 1)"></use><use xlink:href="#SvgjsG1358" transform="translate(360, 144) scale(3)" fill="rgba(16, 100, 116, 1)"></use><use xlink:href="#SvgjsG1361" transform="translate(360, 216) scale(3)" fill="rgba(16, 100, 116, 1)"></use><use xlink:href="#SvgjsG1362" transform="translate(360, 288) scale(3)" fill="rgba(16, 100, 116, 1)"></use><use xlink:href="#SvgjsG1361" transform="translate(360, 360) scale(3)" fill="rgba(16, 100, 116, 1)"></use><use xlink:href="#SvgjsG1361" transform="translate(360, 432) scale(3)" fill="rgba(16, 100, 116, 1)"></use><use xlink:href="#SvgjsG1360" transform="translate(360, 504) scale(3)" fill="rgba(16, 100, 116, 1)"></use><use xlink:href="#SvgjsG1363" transform="translate(432, 0) scale(3)" fill="rgba(16, 100, 116, 1)"></use><use xlink:href="#SvgjsG1361" transform="translate(432, 72) scale(3)" fill="rgba(16, 100, 116, 1)"></use><use xlink:href="#SvgjsG1362" transform="translate(432, 144) scale(3)" fill="rgba(16, 100, 116, 1)"></use><use xlink:href="#SvgjsG1360" transform="translate(432, 216) scale(3)" fill="rgba(16, 100, 116, 1)"></use><use xlink:href="#SvgjsG1362" transform="translate(432, 288) scale(3)" fill="rgba(16, 100, 116, 1)"></use><use xlink:href="#SvgjsG1358" transform="translate(432, 360) scale(3)" fill="rgba(16, 100, 116, 1)"></use><use xlink:href="#SvgjsG1356" transform="translate(432, 432) scale(3)" fill="rgba(16, 100, 116, 1)"></use><use xlink:href="#SvgjsG1361" transform="translate(432, 504) scale(3)" fill="rgba(16, 100, 116, 1)"></use><use xlink:href="#SvgjsG1359" transform="translate(504, 0) scale(3)" fill="rgba(16, 100, 116, 1)"></use><use xlink:href="#SvgjsG1359" transform="translate(504, 72) scale(3)" fill="rgba(16, 100, 116, 1)"></use><use xlink:href="#SvgjsG1359" transform="translate(504, 144) scale(3)" fill="rgba(16, 100, 116, 1)"></use><use xlink:href="#SvgjsG1356" transform="translate(504, 216) scale(3)" fill="rgba(16, 100, 116, 1)"></use><use xlink:href="#SvgjsG1357" transform="translate(504, 288) scale(3)" fill="rgba(16, 100, 116, 1)"></use><use xlink:href="#SvgjsG1359" transform="translate(504, 360) scale(3)" fill="rgba(16, 100, 116, 1)"></use><use xlink:href="#SvgjsG1359" transform="translate(504, 432) scale(3)" fill="rgba(16, 100, 116, 1)"></use><use xlink:href="#SvgjsG1358" transform="translate(504, 504) scale(3)" fill="rgba(16, 100, 116, 1)"></use><use xlink:href="#SvgjsG1358" transform="translate(576, 0) scale(3)" fill="rgba(16, 100, 116, 1)"></use><use xlink:href="#SvgjsG1357" transform="translate(576, 72) scale(3)" fill="rgba(16, 100, 116, 1)"></use><use xlink:href="#SvgjsG1356" transform="translate(576, 144) scale(3)" fill="rgba(16, 100, 116, 1)"></use><use xlink:href="#SvgjsG1356" transform="translate(576, 216) scale(3)" fill="rgba(16, 100, 116, 1)"></use><use xlink:href="#SvgjsG1359" transform="translate(576, 288) scale(3)" fill="rgba(16, 100, 116, 1)"></use><use xlink:href="#SvgjsG1359" transform="translate(576, 360) scale(3)" fill="rgba(16, 100, 116, 1)"></use><use xlink:href="#SvgjsG1360" transform="translate(576, 432) scale(3)" fill="rgba(16, 100, 116, 1)"></use><use xlink:href="#SvgjsG1361" transform="translate(576, 504) scale(3)" fill="rgba(16, 100, 116, 1)"></use><use xlink:href="#SvgjsG1358" transform="translate(648, 0) scale(3)" fill="rgba(16, 100, 116, 1)"></use><use xlink:href="#SvgjsG1356" transform="translate(648, 72) scale(3)" fill="rgba(16, 100, 116, 1)"></use><use xlink:href="#SvgjsG1357" transform="translate(648, 144) scale(3)" fill="rgba(16, 100, 116, 1)"></use><use xlink:href="#SvgjsG1356" transform="translate(648, 216) scale(3)" fill="rgba(16, 100, 116, 1)"></use><use xlink:href="#SvgjsG1362" transform="translate(648, 288) scale(3)" fill="rgba(16, 100, 116, 1)"></use><use xlink:href="#SvgjsG1361" transform="translate(648, 360) scale(3)" fill="rgba(16, 100, 116, 1)"></use><use xlink:href="#SvgjsG1360" transform="translate(648, 432) scale(3)" fill="rgba(16, 100, 116, 1)"></use><use xlink:href="#SvgjsG1361" transform="translate(648, 504) scale(3)" fill="rgba(16, 100, 116, 1)"></use></g></defs></svg>