<svg xmlns="http://www.w3.org/2000/svg" version="1.1" xmlns:xlink="http://www.w3.org/1999/xlink" xmlns:svgjs="http://svgjs.com/svgjs" width="1440" height="560" preserveAspectRatio="none" viewBox="0 0 1440 560"><g mask="url(&quot;#SvgjsMask1243&quot;)" fill="none"><rect width="1440" height="560" x="0" y="0" fill="rgba(17, 27, 34, 1)"></rect><path d="M42.16 267.03L153.01 331.03L153.01 459.03L42.16 523.03L-68.69 459.03L-68.69 331.03zM263.87 267.03L374.72 331.03L374.72 459.03L263.87 523.03L153.01 459.03L153.01 331.03zM485.58 -116.97L596.43 -52.97L596.43 75.03L485.58 139.03L374.72 75.03L374.72 -52.97zM485.58 267.03L596.43 331.03L596.43 459.03L485.58 523.03L374.72 459.03L374.72 331.03zM929 -116.97L1039.85 -52.97L1039.85 75.03L929 139.03L818.14 75.03L818.14 -52.97zM1261.56 75.03L1372.41 139.03L1372.41 267.03L1261.56 331.03L1150.7 267.03L1150.7 139.03zM1372.41 267.03L1483.27 331.03L1483.27 459.03L1372.41 523.03L1261.56 459.03L1261.56 331.03z" stroke="rgba(16, 100, 116, 1)" stroke-width="2"></path><path d="M29.36 267.03 a12.8 12.8 0 1 0 25.6 0 a12.8 12.8 0 1 0 -25.6 0zM140.21 331.03 a12.8 12.8 0 1 0 25.6 0 a12.8 12.8 0 1 0 -25.6 0zM140.21 459.03 a12.8 12.8 0 1 0 25.6 0 a12.8 12.8 0 1 0 -25.6 0zM29.36 523.03 a12.8 12.8 0 1 0 25.6 0 a12.8 12.8 0 1 0 -25.6 0zM-81.49 459.03 a12.8 12.8 0 1 0 25.6 0 a12.8 12.8 0 1 0 -25.6 0zM-81.49 331.03 a12.8 12.8 0 1 0 25.6 0 a12.8 12.8 0 1 0 -25.6 0zM251.07 267.03 a12.8 12.8 0 1 0 25.6 0 a12.8 12.8 0 1 0 -25.6 0zM361.92 331.03 a12.8 12.8 0 1 0 25.6 0 a12.8 12.8 0 1 0 -25.6 0zM361.92 459.03 a12.8 12.8 0 1 0 25.6 0 a12.8 12.8 0 1 0 -25.6 0zM251.07 523.03 a12.8 12.8 0 1 0 25.6 0 a12.8 12.8 0 1 0 -25.6 0zM472.78 -116.97 a12.8 12.8 0 1 0 25.6 0 a12.8 12.8 0 1 0 -25.6 0zM583.63 -52.97 a12.8 12.8 0 1 0 25.6 0 a12.8 12.8 0 1 0 -25.6 0zM583.63 75.03 a12.8 12.8 0 1 0 25.6 0 a12.8 12.8 0 1 0 -25.6 0zM472.78 139.03 a12.8 12.8 0 1 0 25.6 0 a12.8 12.8 0 1 0 -25.6 0zM361.92 75.03 a12.8 12.8 0 1 0 25.6 0 a12.8 12.8 0 1 0 -25.6 0zM361.92 -52.97 a12.8 12.8 0 1 0 25.6 0 a12.8 12.8 0 1 0 -25.6 0zM472.78 267.03 a12.8 12.8 0 1 0 25.6 0 a12.8 12.8 0 1 0 -25.6 0zM583.63 331.03 a12.8 12.8 0 1 0 25.6 0 a12.8 12.8 0 1 0 -25.6 0zM583.63 459.03 a12.8 12.8 0 1 0 25.6 0 a12.8 12.8 0 1 0 -25.6 0zM472.78 523.03 a12.8 12.8 0 1 0 25.6 0 a12.8 12.8 0 1 0 -25.6 0zM916.2 -116.97 a12.8 12.8 0 1 0 25.6 0 a12.8 12.8 0 1 0 -25.6 0zM1027.05 -52.97 a12.8 12.8 0 1 0 25.6 0 a12.8 12.8 0 1 0 -25.6 0zM1027.05 75.03 a12.8 12.8 0 1 0 25.6 0 a12.8 12.8 0 1 0 -25.6 0zM916.2 139.03 a12.8 12.8 0 1 0 25.6 0 a12.8 12.8 0 1 0 -25.6 0zM805.34 75.03 a12.8 12.8 0 1 0 25.6 0 a12.8 12.8 0 1 0 -25.6 0zM805.34 -52.97 a12.8 12.8 0 1 0 25.6 0 a12.8 12.8 0 1 0 -25.6 0zM1248.76 75.03 a12.8 12.8 0 1 0 25.6 0 a12.8 12.8 0 1 0 -25.6 0zM1359.61 139.03 a12.8 12.8 0 1 0 25.6 0 a12.8 12.8 0 1 0 -25.6 0zM1359.61 267.03 a12.8 12.8 0 1 0 25.6 0 a12.8 12.8 0 1 0 -25.6 0zM1248.76 331.03 a12.8 12.8 0 1 0 25.6 0 a12.8 12.8 0 1 0 -25.6 0zM1137.9 267.03 a12.8 12.8 0 1 0 25.6 0 a12.8 12.8 0 1 0 -25.6 0zM1137.9 139.03 a12.8 12.8 0 1 0 25.6 0 a12.8 12.8 0 1 0 -25.6 0zM1470.47 331.03 a12.8 12.8 0 1 0 25.6 0 a12.8 12.8 0 1 0 -25.6 0zM1470.47 459.03 a12.8 12.8 0 1 0 25.6 0 a12.8 12.8 0 1 0 -25.6 0zM1359.61 523.03 a12.8 12.8 0 1 0 25.6 0 a12.8 12.8 0 1 0 -25.6 0zM1248.76 459.03 a12.8 12.8 0 1 0 25.6 0 a12.8 12.8 0 1 0 -25.6 0z" fill="rgba(16, 100, 116, 1)"></path><path d="M42.32 301.52L87.35 327.52L87.35 379.52L42.32 405.52L-2.71 379.52L-2.71 327.52zM132.39 -10.48L177.42 15.52L177.42 67.52L132.39 93.52L87.35 67.52L87.35 15.52zM132.39 457.52L177.42 483.52L177.42 535.52L132.39 561.52L87.35 535.52L87.35 483.52zM177.42 535.52L222.46 561.52L222.46 613.52L177.42 639.52L132.39 613.52L132.39 561.52zM267.49 67.52L312.53 93.52L312.53 145.52L267.49 171.52L222.46 145.52L222.46 93.52zM267.49 223.52L312.53 249.52L312.53 301.52L267.49 327.52L222.46 301.52L222.46 249.52zM267.49 535.52L312.53 561.52L312.53 613.52L267.49 639.52L222.46 613.52L222.46 561.52zM357.56 535.52L402.6 561.52L402.6 613.52L357.56 639.52L312.53 613.52L312.53 561.52zM402.6 -10.48L447.63 15.52L447.63 67.52L402.6 93.52L357.56 67.52L357.56 15.52zM402.6 301.52L447.63 327.52L447.63 379.52L402.6 405.52L357.56 379.52L357.56 327.52zM492.67 457.52L537.7 483.52L537.7 535.52L492.67 561.52L447.63 535.52L447.63 483.52zM582.74 145.52L627.77 171.52L627.77 223.52L582.74 249.52L537.7 223.52L537.7 171.52zM627.77 223.52L672.8 249.52L672.8 301.52L627.77 327.52L582.74 301.52L582.74 249.52zM627.77 535.52L672.8 561.52L672.8 613.52L627.77 639.52L582.74 613.52L582.74 561.52zM672.8 145.52L717.84 171.52L717.84 223.52L672.8 249.52L627.77 223.52L627.77 171.52zM717.84 223.52L762.87 249.52L762.87 301.52L717.84 327.52L672.8 301.52L672.8 249.52zM672.8 301.52L717.84 327.52L717.84 379.52L672.8 405.52L627.77 379.52L627.77 327.52zM717.84 379.52L762.87 405.52L762.87 457.52L717.84 483.52L672.8 457.52L672.8 405.52zM807.91 67.52L852.94 93.52L852.94 145.52L807.91 171.52L762.87 145.52L762.87 93.52zM762.87 145.52L807.91 171.52L807.91 223.52L762.87 249.52L717.84 223.52L717.84 171.52zM852.94 -10.48L897.98 15.52L897.98 67.52L852.94 93.52L807.91 67.52L807.91 15.52zM852.94 145.52L897.98 171.52L897.98 223.52L852.94 249.52L807.91 223.52L807.91 171.52zM897.98 223.52L943.01 249.52L943.01 301.52L897.98 327.52L852.94 301.52L852.94 249.52zM852.94 457.52L897.98 483.52L897.98 535.52L852.94 561.52L807.91 535.52L807.91 483.52zM897.98 535.52L943.01 561.52L943.01 613.52L897.98 639.52L852.94 613.52L852.94 561.52zM988.05 535.52L1033.08 561.52L1033.08 613.52L988.05 639.52L943.01 613.52L943.01 561.52zM1033.08 301.52L1078.12 327.52L1078.12 379.52L1033.08 405.52L988.05 379.52L988.05 327.52zM1078.12 379.52L1123.15 405.52L1123.15 457.52L1078.12 483.52L1033.08 457.52L1033.08 405.52zM1123.15 145.52L1168.18 171.52L1168.18 223.52L1123.15 249.52L1078.12 223.52L1078.12 171.52zM1168.18 223.52L1213.22 249.52L1213.22 301.52L1168.18 327.52L1123.15 301.52L1123.15 249.52zM1168.18 379.52L1213.22 405.52L1213.22 457.52L1168.18 483.52L1123.15 457.52L1123.15 405.52zM1213.22 -10.48L1258.25 15.52L1258.25 67.52L1213.22 93.52L1168.18 67.52L1168.18 15.52zM1258.25 223.52L1303.29 249.52L1303.29 301.52L1258.25 327.52L1213.22 301.52L1213.22 249.52zM1348.32 67.52L1393.36 93.52L1393.36 145.52L1348.32 171.52L1303.29 145.52L1303.29 93.52zM1303.29 145.52L1348.32 171.52L1348.32 223.52L1303.29 249.52L1258.25 223.52L1258.25 171.52zM1393.36 145.52L1438.39 171.52L1438.39 223.52L1393.36 249.52L1348.32 223.52L1348.32 171.52zM1438.39 535.52L1483.43 561.52L1483.43 613.52L1438.39 639.52L1393.36 613.52L1393.36 561.52z" stroke="rgba(20, 126, 159, 1)" stroke-width="2"></path></g><defs><mask id="SvgjsMask1243"><rect width="1440" height="560" fill="#ffffff"></rect></mask></defs></svg>