<svg xmlns="http://www.w3.org/2000/svg" version="1.1" xmlns:xlink="http://www.w3.org/1999/xlink" xmlns:svgjs="http://svgjs.com/svgjs" width="1440" height="560" preserveAspectRatio="none" viewBox="0 0 1440 560"><g mask="url(&quot;#SvgjsMask1006&quot;)" fill="none"><rect width="1440" height="560" x="0" y="0" fill="rgba(17, 27, 34, 1)"></rect><path d="M-104.22 351.23L-104.22 351.23" stroke="rgba(20, 126, 159, 1)" stroke-width="1.5"></path><path d="M-104.22 351.23L-92.72 503.52" stroke="rgba(20, 126, 159, 1)" stroke-width="1.5"></path><path d="M-104.22 351.23L50.95 390.93" stroke="rgba(20, 126, 159, 1)" stroke-width="1.5"></path><path d="M-104.22 351.23L95.59 548.28" stroke="rgba(20, 126, 159, 1)" stroke-width="1.5"></path><path d="M-104.22 351.23L-92.03 688" stroke="rgba(20, 126, 159, 1)" stroke-width="1.5"></path><path d="M-104.22 351.23L242.4 374.99" stroke="rgba(20, 126, 159, 1)" stroke-width="1.5"></path><path d="M-92.72 503.52L-92.72 503.52" stroke="rgba(20, 126, 159, 1)" stroke-width="1.5"></path><path d="M-92.72 503.52L50.95 390.93" stroke="rgba(20, 126, 159, 1)" stroke-width="1.5"></path><path d="M-92.72 503.52L-92.03 688" stroke="rgba(20, 126, 159, 1)" stroke-width="1.5"></path><path d="M-92.03 688L-92.03 688" stroke="rgba(20, 126, 159, 1)" stroke-width="1.5"></path><path d="M-92.03 688L87.3 701.44" stroke="rgba(20, 126, 159, 1)" stroke-width="1.5"></path><path d="M-92.03 688L95.59 548.28" stroke="rgba(20, 126, 159, 1)" stroke-width="1.5"></path><path d="M-92.03 688L50.95 390.93" stroke="rgba(20, 126, 159, 1)" stroke-width="1.5"></path><path d="M50.95 390.93L50.95 390.93" stroke="rgba(20, 126, 159, 1)" stroke-width="1.5"></path><path d="M50.95 390.93L95.59 548.28" stroke="rgba(20, 126, 159, 1)" stroke-width="1.5"></path><path d="M50.95 390.93L242.4 374.99" stroke="rgba(20, 126, 159, 1)" stroke-width="1.5"></path><path d="M50.95 390.93L250.52 503.96" stroke="rgba(20, 126, 159, 1)" stroke-width="1.5"></path><path d="M50.95 390.93L87.3 701.44" stroke="rgba(20, 126, 159, 1)" stroke-width="1.5"></path><path d="M95.59 548.28L95.59 548.28" stroke="rgba(20, 126, 159, 1)" stroke-width="1.5"></path><path d="M95.59 548.28L87.3 701.44" stroke="rgba(20, 126, 159, 1)" stroke-width="1.5"></path><path d="M95.59 548.28L250.52 503.96" stroke="rgba(20, 126, 159, 1)" stroke-width="1.5"></path><path d="M87.3 701.44L87.3 701.44" stroke="rgba(20, 126, 159, 1)" stroke-width="1.5"></path><path d="M87.3 701.44L240.55 698.08" stroke="rgba(20, 126, 159, 1)" stroke-width="1.5"></path><path d="M242.4 374.99L242.4 374.99" stroke="rgba(20, 126, 159, 1)" stroke-width="1.5"></path><path d="M242.4 374.99L250.52 503.96" stroke="rgba(20, 126, 159, 1)" stroke-width="1.5"></path><path d="M242.4 374.99L395.78 364.07" stroke="rgba(20, 126, 159, 1)" stroke-width="1.5"></path><path d="M242.4 374.99L350.29 503.95" stroke="rgba(20, 126, 159, 1)" stroke-width="1.5"></path><path d="M242.4 374.99L95.59 548.28" stroke="rgba(20, 126, 159, 1)" stroke-width="1.5"></path><path d="M242.4 374.99L546.7 404.61" stroke="rgba(20, 126, 159, 1)" stroke-width="1.5"></path><path d="M250.52 503.96L250.52 503.96" stroke="rgba(20, 126, 159, 1)" stroke-width="1.5"></path><path d="M250.52 503.96L350.29 503.95" stroke="rgba(20, 126, 159, 1)" stroke-width="1.5"></path><path d="M240.55 698.08L240.55 698.08" stroke="rgba(20, 126, 159, 1)" stroke-width="1.5"></path><path d="M240.55 698.08L408.77 647.95" stroke="rgba(20, 126, 159, 1)" stroke-width="1.5"></path><path d="M395.78 364.07L395.78 364.07" stroke="rgba(20, 126, 159, 1)" stroke-width="1.5"></path><path d="M395.78 364.07L350.29 503.95" stroke="rgba(20, 126, 159, 1)" stroke-width="1.5"></path><path d="M395.78 364.07L546.7 404.61" stroke="rgba(20, 126, 159, 1)" stroke-width="1.5"></path><path d="M350.29 503.95L350.29 503.95" stroke="rgba(20, 126, 159, 1)" stroke-width="1.5"></path><path d="M350.29 503.95L408.77 647.95" stroke="rgba(20, 126, 159, 1)" stroke-width="1.5"></path><path d="M350.29 503.95L530.28 510.43" stroke="rgba(20, 126, 159, 1)" stroke-width="1.5"></path><path d="M350.29 503.95L546.7 404.61" stroke="rgba(20, 126, 159, 1)" stroke-width="1.5"></path><path d="M408.77 647.95L408.77 647.95" stroke="rgba(20, 126, 159, 1)" stroke-width="1.5"></path><path d="M408.77 647.95L550.4 656.91" stroke="rgba(20, 126, 159, 1)" stroke-width="1.5"></path><path d="M408.77 647.95L530.28 510.43" stroke="rgba(20, 126, 159, 1)" stroke-width="1.5"></path><path d="M546.7 404.61L546.7 404.61" stroke="rgba(20, 126, 159, 1)" stroke-width="1.5"></path><path d="M546.7 404.61L530.28 510.43" stroke="rgba(20, 126, 159, 1)" stroke-width="1.5"></path><path d="M546.7 404.61L643.55 507.01" stroke="rgba(20, 126, 159, 1)" stroke-width="1.5"></path><path d="M546.7 404.61L710.35 407.4" stroke="rgba(20, 126, 159, 1)" stroke-width="1.5"></path><path d="M530.28 510.43L530.28 510.43" stroke="rgba(20, 126, 159, 1)" stroke-width="1.5"></path><path d="M530.28 510.43L643.55 507.01" stroke="rgba(20, 126, 159, 1)" stroke-width="1.5"></path><path d="M530.28 510.43L550.4 656.91" stroke="rgba(20, 126, 159, 1)" stroke-width="1.5"></path><path d="M550.4 656.91L550.4 656.91" stroke="rgba(20, 126, 159, 1)" stroke-width="1.5"></path><path d="M550.4 656.91L684.35 649.31" stroke="rgba(20, 126, 159, 1)" stroke-width="1.5"></path><path d="M550.4 656.91L643.55 507.01" stroke="rgba(20, 126, 159, 1)" stroke-width="1.5"></path><path d="M550.4 656.91L350.29 503.95" stroke="rgba(20, 126, 159, 1)" stroke-width="1.5"></path><path d="M710.35 407.4L710.35 407.4" stroke="rgba(20, 126, 159, 1)" stroke-width="1.5"></path><path d="M710.35 407.4L827.09 393.06" stroke="rgba(20, 126, 159, 1)" stroke-width="1.5"></path><path d="M710.35 407.4L643.55 507.01" stroke="rgba(20, 126, 159, 1)" stroke-width="1.5"></path><path d="M643.55 507.01L643.55 507.01" stroke="rgba(20, 126, 159, 1)" stroke-width="1.5"></path><path d="M643.55 507.01L684.35 649.31" stroke="rgba(20, 126, 159, 1)" stroke-width="1.5"></path><path d="M684.35 649.31L684.35 649.31" stroke="rgba(20, 126, 159, 1)" stroke-width="1.5"></path><path d="M684.35 649.31L813.87 646.49" stroke="rgba(20, 126, 159, 1)" stroke-width="1.5"></path><path d="M684.35 649.31L530.28 510.43" stroke="rgba(20, 126, 159, 1)" stroke-width="1.5"></path><path d="M684.35 649.31L835.77 499.66" stroke="rgba(20, 126, 159, 1)" stroke-width="1.5"></path><path d="M845.63 109.4L845.63 109.4" stroke="rgba(20, 126, 159, 1)" stroke-width="1.5"></path><path d="M845.63 109.4L848.65 227.87" stroke="rgba(20, 126, 159, 1)" stroke-width="1.5"></path><path d="M845.63 109.4L1006.28 245.32" stroke="rgba(20, 126, 159, 1)" stroke-width="1.5"></path><path d="M845.63 109.4L992.19 -102.68" stroke="rgba(20, 126, 159, 1)" stroke-width="1.5"></path><path d="M848.65 227.87L848.65 227.87" stroke="rgba(20, 126, 159, 1)" stroke-width="1.5"></path><path d="M848.65 227.87L1006.28 245.32" stroke="rgba(20, 126, 159, 1)" stroke-width="1.5"></path><path d="M848.65 227.87L827.09 393.06" stroke="rgba(20, 126, 159, 1)" stroke-width="1.5"></path><path d="M848.65 227.87L997.03 346.72" stroke="rgba(20, 126, 159, 1)" stroke-width="1.5"></path><path d="M848.65 227.87L710.35 407.4" stroke="rgba(20, 126, 159, 1)" stroke-width="1.5"></path><path d="M827.09 393.06L827.09 393.06" stroke="rgba(20, 126, 159, 1)" stroke-width="1.5"></path><path d="M827.09 393.06L835.77 499.66" stroke="rgba(20, 126, 159, 1)" stroke-width="1.5"></path><path d="M827.09 393.06L997.03 346.72" stroke="rgba(20, 126, 159, 1)" stroke-width="1.5"></path><path d="M827.09 393.06L974.33 535.32" stroke="rgba(20, 126, 159, 1)" stroke-width="1.5"></path><path d="M827.09 393.06L643.55 507.01" stroke="rgba(20, 126, 159, 1)" stroke-width="1.5"></path><path d="M835.77 499.66L835.77 499.66" stroke="rgba(20, 126, 159, 1)" stroke-width="1.5"></path><path d="M835.77 499.66L974.33 535.32" stroke="rgba(20, 126, 159, 1)" stroke-width="1.5"></path><path d="M835.77 499.66L813.87 646.49" stroke="rgba(20, 126, 159, 1)" stroke-width="1.5"></path><path d="M813.87 646.49L813.87 646.49" stroke="rgba(20, 126, 159, 1)" stroke-width="1.5"></path><path d="M992.19 -102.68L992.19 -102.68" stroke="rgba(20, 126, 159, 1)" stroke-width="1.5"></path><path d="M992.19 -102.68L1124.82 45.47" stroke="rgba(20, 126, 159, 1)" stroke-width="1.5"></path><path d="M992.19 -102.68L1296.54 -51.88" stroke="rgba(20, 126, 159, 1)" stroke-width="1.5"></path><path d="M992.19 -102.68L1094.58 204.57" stroke="rgba(20, 126, 159, 1)" stroke-width="1.5"></path><path d="M1006.28 245.32L1006.28 245.32" stroke="rgba(20, 126, 159, 1)" stroke-width="1.5"></path><path d="M1006.28 245.32L1094.58 204.57" stroke="rgba(20, 126, 159, 1)" stroke-width="1.5"></path><path d="M1006.28 245.32L997.03 346.72" stroke="rgba(20, 126, 159, 1)" stroke-width="1.5"></path><path d="M997.03 346.72L997.03 346.72" stroke="rgba(20, 126, 159, 1)" stroke-width="1.5"></path><path d="M997.03 346.72L1094.58 204.57" stroke="rgba(20, 126, 159, 1)" stroke-width="1.5"></path><path d="M997.03 346.72L974.33 535.32" stroke="rgba(20, 126, 159, 1)" stroke-width="1.5"></path><path d="M974.33 535.32L974.33 535.32" stroke="rgba(20, 126, 159, 1)" stroke-width="1.5"></path><path d="M974.33 535.32L1003.26 641.15" stroke="rgba(20, 126, 159, 1)" stroke-width="1.5"></path><path d="M974.33 535.32L1152.18 550.62" stroke="rgba(20, 126, 159, 1)" stroke-width="1.5"></path><path d="M1003.26 641.15L1003.26 641.15" stroke="rgba(20, 126, 159, 1)" stroke-width="1.5"></path><path d="M1003.26 641.15L1162.18 659.86" stroke="rgba(20, 126, 159, 1)" stroke-width="1.5"></path><path d="M1003.26 641.15L1152.18 550.62" stroke="rgba(20, 126, 159, 1)" stroke-width="1.5"></path><path d="M1003.26 641.15L813.87 646.49" stroke="rgba(20, 126, 159, 1)" stroke-width="1.5"></path><path d="M1003.26 641.15L835.77 499.66" stroke="rgba(20, 126, 159, 1)" stroke-width="1.5"></path><path d="M1003.26 641.15L997.03 346.72" stroke="rgba(20, 126, 159, 1)" stroke-width="1.5"></path><path d="M1124.82 45.47L1124.82 45.47" stroke="rgba(20, 126, 159, 1)" stroke-width="1.5"></path><path d="M1124.82 45.47L1094.58 204.57" stroke="rgba(20, 126, 159, 1)" stroke-width="1.5"></path><path d="M1124.82 45.47L1290.17 96.29" stroke="rgba(20, 126, 159, 1)" stroke-width="1.5"></path><path d="M1124.82 45.47L1296.54 -51.88" stroke="rgba(20, 126, 159, 1)" stroke-width="1.5"></path><path d="M1124.82 45.47L1006.28 245.32" stroke="rgba(20, 126, 159, 1)" stroke-width="1.5"></path><path d="M1124.82 45.47L1293.87 221.84" stroke="rgba(20, 126, 159, 1)" stroke-width="1.5"></path><path d="M1094.58 204.57L1094.58 204.57" stroke="rgba(20, 126, 159, 1)" stroke-width="1.5"></path><path d="M1094.58 204.57L1293.87 221.84" stroke="rgba(20, 126, 159, 1)" stroke-width="1.5"></path><path d="M1094.58 204.57L1259.75 342.02" stroke="rgba(20, 126, 159, 1)" stroke-width="1.5"></path><path d="M1152.18 550.62L1152.18 550.62" stroke="rgba(20, 126, 159, 1)" stroke-width="1.5"></path><path d="M1152.18 550.62L1162.18 659.86" stroke="rgba(20, 126, 159, 1)" stroke-width="1.5"></path><path d="M1152.18 550.62L1266.59 491.32" stroke="rgba(20, 126, 159, 1)" stroke-width="1.5"></path><path d="M1162.18 659.86L1162.18 659.86" stroke="rgba(20, 126, 159, 1)" stroke-width="1.5"></path><path d="M1162.18 659.86L1295.2 684.59" stroke="rgba(20, 126, 159, 1)" stroke-width="1.5"></path><path d="M1296.54 -51.88L1296.54 -51.88" stroke="rgba(20, 126, 159, 1)" stroke-width="1.5"></path><path d="M1296.54 -51.88L1431.21 -85.83" stroke="rgba(20, 126, 159, 1)" stroke-width="1.5"></path><path d="M1296.54 -51.88L1290.17 96.29" stroke="rgba(20, 126, 159, 1)" stroke-width="1.5"></path><path d="M1296.54 -51.88L1401.47 58.96" stroke="rgba(20, 126, 159, 1)" stroke-width="1.5"></path><path d="M1296.54 -51.88L1551.09 -81.15" stroke="rgba(20, 126, 159, 1)" stroke-width="1.5"></path><path d="M1296.54 -51.88L1293.87 221.84" stroke="rgba(20, 126, 159, 1)" stroke-width="1.5"></path><path d="M1290.17 96.29L1290.17 96.29" stroke="rgba(20, 126, 159, 1)" stroke-width="1.5"></path><path d="M1290.17 96.29L1401.47 58.96" stroke="rgba(20, 126, 159, 1)" stroke-width="1.5"></path><path d="M1290.17 96.29L1293.87 221.84" stroke="rgba(20, 126, 159, 1)" stroke-width="1.5"></path><path d="M1290.17 96.29L1412.3 213.68" stroke="rgba(20, 126, 159, 1)" stroke-width="1.5"></path><path d="M1290.17 96.29L1094.58 204.57" stroke="rgba(20, 126, 159, 1)" stroke-width="1.5"></path><path d="M1293.87 221.84L1293.87 221.84" stroke="rgba(20, 126, 159, 1)" stroke-width="1.5"></path><path d="M1293.87 221.84L1412.3 213.68" stroke="rgba(20, 126, 159, 1)" stroke-width="1.5"></path><path d="M1293.87 221.84L1259.75 342.02" stroke="rgba(20, 126, 159, 1)" stroke-width="1.5"></path><path d="M1259.75 342.02L1259.75 342.02" stroke="rgba(20, 126, 159, 1)" stroke-width="1.5"></path><path d="M1259.75 342.02L1266.59 491.32" stroke="rgba(20, 126, 159, 1)" stroke-width="1.5"></path><path d="M1266.59 491.32L1266.59 491.32" stroke="rgba(20, 126, 159, 1)" stroke-width="1.5"></path><path d="M1266.59 491.32L1395.27 411.43" stroke="rgba(20, 126, 159, 1)" stroke-width="1.5"></path><path d="M1266.59 491.32L1412.07 554.54" stroke="rgba(20, 126, 159, 1)" stroke-width="1.5"></path><path d="M1295.2 684.59L1295.2 684.59" stroke="rgba(20, 126, 159, 1)" stroke-width="1.5"></path><path d="M1295.2 684.59L1445.62 708.34" stroke="rgba(20, 126, 159, 1)" stroke-width="1.5"></path><path d="M1295.2 684.59L1412.07 554.54" stroke="rgba(20, 126, 159, 1)" stroke-width="1.5"></path><path d="M1295.2 684.59L1266.59 491.32" stroke="rgba(20, 126, 159, 1)" stroke-width="1.5"></path><path d="M1295.2 684.59L1152.18 550.62" stroke="rgba(20, 126, 159, 1)" stroke-width="1.5"></path><path d="M1295.2 684.59L1574.92 680.69" stroke="rgba(20, 126, 159, 1)" stroke-width="1.5"></path><path d="M1431.21 -85.83L1431.21 -85.83" stroke="rgba(20, 126, 159, 1)" stroke-width="1.5"></path><path d="M1431.21 -85.83L1551.09 -81.15" stroke="rgba(20, 126, 159, 1)" stroke-width="1.5"></path><path d="M1431.21 -85.83L1401.47 58.96" stroke="rgba(20, 126, 159, 1)" stroke-width="1.5"></path><path d="M1431.21 -85.83L1290.17 96.29" stroke="rgba(20, 126, 159, 1)" stroke-width="1.5"></path><path d="M1401.47 58.96L1401.47 58.96" stroke="rgba(20, 126, 159, 1)" stroke-width="1.5"></path><path d="M1412.3 213.68L1412.3 213.68" stroke="rgba(20, 126, 159, 1)" stroke-width="1.5"></path><path d="M1412.3 213.68L1401.47 58.96" stroke="rgba(20, 126, 159, 1)" stroke-width="1.5"></path><path d="M1412.3 213.68L1573.43 222.2" stroke="rgba(20, 126, 159, 1)" stroke-width="1.5"></path><path d="M1412.3 213.68L1395.27 411.43" stroke="rgba(20, 126, 159, 1)" stroke-width="1.5"></path><path d="M1395.27 411.43L1395.27 411.43" stroke="rgba(20, 126, 159, 1)" stroke-width="1.5"></path><path d="M1395.27 411.43L1412.07 554.54" stroke="rgba(20, 126, 159, 1)" stroke-width="1.5"></path><path d="M1395.27 411.43L1259.75 342.02" stroke="rgba(20, 126, 159, 1)" stroke-width="1.5"></path><path d="M1395.27 411.43L1588.79 396.58" stroke="rgba(20, 126, 159, 1)" stroke-width="1.5"></path><path d="M1395.27 411.43L1563.41 543.61" stroke="rgba(20, 126, 159, 1)" stroke-width="1.5"></path><path d="M1412.07 554.54L1412.07 554.54" stroke="rgba(20, 126, 159, 1)" stroke-width="1.5"></path><path d="M1412.07 554.54L1563.41 543.61" stroke="rgba(20, 126, 159, 1)" stroke-width="1.5"></path><path d="M1412.07 554.54L1445.62 708.34" stroke="rgba(20, 126, 159, 1)" stroke-width="1.5"></path><path d="M1445.62 708.34L1445.62 708.34" stroke="rgba(20, 126, 159, 1)" stroke-width="1.5"></path><path d="M1445.62 708.34L1574.92 680.69" stroke="rgba(20, 126, 159, 1)" stroke-width="1.5"></path><path d="M1445.62 708.34L1563.41 543.61" stroke="rgba(20, 126, 159, 1)" stroke-width="1.5"></path><path d="M1551.09 -81.15L1551.09 -81.15" stroke="rgba(20, 126, 159, 1)" stroke-width="1.5"></path><path d="M1551.09 -81.15L1606.76 74.35" stroke="rgba(20, 126, 159, 1)" stroke-width="1.5"></path><path d="M1551.09 -81.15L1401.47 58.96" stroke="rgba(20, 126, 159, 1)" stroke-width="1.5"></path><path d="M1606.76 74.35L1606.76 74.35" stroke="rgba(20, 126, 159, 1)" stroke-width="1.5"></path><path d="M1606.76 74.35L1573.43 222.2" stroke="rgba(20, 126, 159, 1)" stroke-width="1.5"></path><path d="M1606.76 74.35L1401.47 58.96" stroke="rgba(20, 126, 159, 1)" stroke-width="1.5"></path><path d="M1606.76 74.35L1431.21 -85.83" stroke="rgba(20, 126, 159, 1)" stroke-width="1.5"></path><path d="M1606.76 74.35L1412.3 213.68" stroke="rgba(20, 126, 159, 1)" stroke-width="1.5"></path><path d="M1573.43 222.2L1573.43 222.2" stroke="rgba(20, 126, 159, 1)" stroke-width="1.5"></path><path d="M1573.43 222.2L1588.79 396.58" stroke="rgba(20, 126, 159, 1)" stroke-width="1.5"></path><path d="M1573.43 222.2L1401.47 58.96" stroke="rgba(20, 126, 159, 1)" stroke-width="1.5"></path><path d="M1573.43 222.2L1395.27 411.43" stroke="rgba(20, 126, 159, 1)" stroke-width="1.5"></path><path d="M1573.43 222.2L1293.87 221.84" stroke="rgba(20, 126, 159, 1)" stroke-width="1.5"></path><path d="M1588.79 396.58L1588.79 396.58" stroke="rgba(20, 126, 159, 1)" stroke-width="1.5"></path><path d="M1588.79 396.58L1563.41 543.61" stroke="rgba(20, 126, 159, 1)" stroke-width="1.5"></path><path d="M1588.79 396.58L1412.07 554.54" stroke="rgba(20, 126, 159, 1)" stroke-width="1.5"></path><path d="M1588.79 396.58L1412.3 213.68" stroke="rgba(20, 126, 159, 1)" stroke-width="1.5"></path><path d="M1563.41 543.61L1563.41 543.61" stroke="rgba(20, 126, 159, 1)" stroke-width="1.5"></path><path d="M1563.41 543.61L1574.92 680.69" stroke="rgba(20, 126, 159, 1)" stroke-width="1.5"></path><path d="M1574.92 680.69L1574.92 680.69" stroke="rgba(20, 126, 159, 1)" stroke-width="1.5"></path><circle r="5" cx="-104.22" cy="351.23" fill="rgba(20, 126, 159, 1)"></circle><circle r="5" cx="-92.72" cy="503.52" fill="rgba(20, 126, 159, 1)"></circle><circle r="5" cx="-92.03" cy="688" fill="rgba(20, 126, 159, 1)"></circle><circle r="5" cx="50.95" cy="390.93" fill="rgba(20, 126, 159, 1)"></circle><circle r="5" cx="95.59" cy="548.28" fill="rgba(20, 126, 159, 1)"></circle><circle r="5" cx="87.3" cy="701.44" fill="rgba(20, 126, 159, 1)"></circle><circle r="5" cx="242.4" cy="374.99" fill="rgba(20, 126, 159, 1)"></circle><circle r="5" cx="250.52" cy="503.96" fill="rgba(20, 126, 159, 1)"></circle><circle r="5" cx="240.55" cy="698.08" fill="rgba(20, 126, 159, 1)"></circle><circle r="5" cx="395.78" cy="364.07" fill="rgba(20, 126, 159, 1)"></circle><circle r="5" cx="350.29" cy="503.95" fill="rgba(20, 126, 159, 1)"></circle><circle r="5" cx="408.77" cy="647.95" fill="rgba(20, 126, 159, 1)"></circle><circle r="5" cx="546.7" cy="404.61" fill="rgba(20, 126, 159, 1)"></circle><circle r="5" cx="530.28" cy="510.43" fill="rgba(20, 126, 159, 1)"></circle><circle r="5" cx="550.4" cy="656.91" fill="rgba(20, 126, 159, 1)"></circle><circle r="5" cx="710.35" cy="407.4" fill="rgba(20, 126, 159, 1)"></circle><circle r="5" cx="643.55" cy="507.01" fill="rgba(20, 126, 159, 1)"></circle><circle r="5" cx="684.35" cy="649.31" fill="rgba(20, 126, 159, 1)"></circle><circle r="5" cx="845.63" cy="109.4" fill="rgba(20, 126, 159, 1)"></circle><circle r="5" cx="848.65" cy="227.87" fill="rgba(20, 126, 159, 1)"></circle><circle r="5" cx="827.09" cy="393.06" fill="rgba(20, 126, 159, 1)"></circle><circle r="5" cx="835.77" cy="499.66" fill="rgba(20, 126, 159, 1)"></circle><circle r="5" cx="813.87" cy="646.49" fill="rgba(20, 126, 159, 1)"></circle><circle r="5" cx="992.19" cy="-102.68" fill="rgba(20, 126, 159, 1)"></circle><circle r="5" cx="1006.28" cy="245.32" fill="rgba(20, 126, 159, 1)"></circle><circle r="5" cx="997.03" cy="346.72" fill="rgba(20, 126, 159, 1)"></circle><circle r="5" cx="974.33" cy="535.32" fill="rgba(20, 126, 159, 1)"></circle><circle r="5" cx="1003.26" cy="641.15" fill="rgba(20, 126, 159, 1)"></circle><circle r="5" cx="1124.82" cy="45.47" fill="rgba(20, 126, 159, 1)"></circle><circle r="5" cx="1094.58" cy="204.57" fill="rgba(20, 126, 159, 1)"></circle><circle r="5" cx="1152.18" cy="550.62" fill="rgba(20, 126, 159, 1)"></circle><circle r="5" cx="1162.18" cy="659.86" fill="rgba(20, 126, 159, 1)"></circle><circle r="5" cx="1296.54" cy="-51.88" fill="rgba(20, 126, 159, 1)"></circle><circle r="5" cx="1290.17" cy="96.29" fill="rgba(20, 126, 159, 1)"></circle><circle r="5" cx="1293.87" cy="221.84" fill="rgba(20, 126, 159, 1)"></circle><circle r="5" cx="1259.75" cy="342.02" fill="rgba(20, 126, 159, 1)"></circle><circle r="5" cx="1266.59" cy="491.32" fill="rgba(20, 126, 159, 1)"></circle><circle r="5" cx="1295.2" cy="684.59" fill="rgba(20, 126, 159, 1)"></circle><circle r="5" cx="1431.21" cy="-85.83" fill="rgba(20, 126, 159, 1)"></circle><circle r="5" cx="1401.47" cy="58.96" fill="rgba(20, 126, 159, 1)"></circle><circle r="5" cx="1412.3" cy="213.68" fill="rgba(20, 126, 159, 1)"></circle><circle r="5" cx="1395.27" cy="411.43" fill="rgba(20, 126, 159, 1)"></circle><circle r="5" cx="1412.07" cy="554.54" fill="rgba(20, 126, 159, 1)"></circle><circle r="5" cx="1445.62" cy="708.34" fill="rgba(20, 126, 159, 1)"></circle><circle r="5" cx="1551.09" cy="-81.15" fill="rgba(20, 126, 159, 1)"></circle><circle r="5" cx="1606.76" cy="74.35" fill="rgba(20, 126, 159, 1)"></circle><circle r="5" cx="1573.43" cy="222.2" fill="rgba(20, 126, 159, 1)"></circle><circle r="5" cx="1588.79" cy="396.58" fill="rgba(20, 126, 159, 1)"></circle><circle r="5" cx="1563.41" cy="543.61" fill="rgba(20, 126, 159, 1)"></circle><circle r="5" cx="1574.92" cy="680.69" fill="rgba(20, 126, 159, 1)"></circle><path d="M108.73 709.45L108.73 709.45" stroke="hsl(189.60000000000002, 75.8%, 33.6%)" stroke-width="1.5"></path><path d="M108.73 709.45L194.64 638.28" stroke="hsl(189.60000000000002, 75.8%, 33.6%)" stroke-width="1.5"></path><path d="M108.73 709.45L-77.79 697.94" stroke="hsl(189.60000000000002, 75.8%, 33.6%)" stroke-width="1.5"></path><path d="M108.73 709.45L40.02 488.44" stroke="hsl(189.60000000000002, 75.8%, 33.6%)" stroke-width="1.5"></path><path d="M108.73 709.45L252.68 511.92" stroke="hsl(189.60000000000002, 75.8%, 33.6%)" stroke-width="1.5"></path><path d="M108.73 709.45L-83.76 550.72" stroke="hsl(189.60000000000002, 75.8%, 33.6%)" stroke-width="1.5"></path><path d="M108.73 709.45L357.82 554.54" stroke="hsl(189.60000000000002, 75.8%, 33.6%)" stroke-width="1.5"></path><path d="M505 515.21L505 515.21" stroke="hsl(189.60000000000002, 75.8%, 33.6%)" stroke-width="1.5"></path><path d="M505 515.21L495.4 411.13" stroke="hsl(189.60000000000002, 75.8%, 33.6%)" stroke-width="1.5"></path><path d="M505 515.21L648.2 552.2" stroke="hsl(189.60000000000002, 75.8%, 33.6%)" stroke-width="1.5"></path><path d="M505 515.21L357.82 554.54" stroke="hsl(189.60000000000002, 75.8%, 33.6%)" stroke-width="1.5"></path><path d="M658.78 395.39L658.78 395.39" stroke="hsl(189.60000000000002, 75.8%, 33.6%)" stroke-width="1.5"></path><path d="M658.78 395.39L790.85 387.35" stroke="hsl(189.60000000000002, 75.8%, 33.6%)" stroke-width="1.5"></path><path d="M658.78 395.39L648.2 552.2" stroke="hsl(189.60000000000002, 75.8%, 33.6%)" stroke-width="1.5"></path><path d="M683.16 663.75L683.16 663.75" stroke="hsl(189.60000000000002, 75.8%, 33.6%)" stroke-width="1.5"></path><path d="M683.16 663.75L648.2 552.2" stroke="hsl(189.60000000000002, 75.8%, 33.6%)" stroke-width="1.5"></path><path d="M683.16 663.75L827.53 645.47" stroke="hsl(189.60000000000002, 75.8%, 33.6%)" stroke-width="1.5"></path><path d="M683.16 663.75L815.89 515.15" stroke="hsl(189.60000000000002, 75.8%, 33.6%)" stroke-width="1.5"></path><path d="M683.16 663.75L505 515.21" stroke="hsl(189.60000000000002, 75.8%, 33.6%)" stroke-width="1.5"></path><path d="M683.16 663.75L658.78 395.39" stroke="hsl(189.60000000000002, 75.8%, 33.6%)" stroke-width="1.5"></path><path d="M683.16 663.75L404.92 661.15" stroke="hsl(189.60000000000002, 75.8%, 33.6%)" stroke-width="1.5"></path><path d="M987.98 363.6L987.98 363.6" stroke="hsl(189.60000000000002, 75.8%, 33.6%)" stroke-width="1.5"></path><path d="M987.98 363.6L1127.17 341.19" stroke="hsl(189.60000000000002, 75.8%, 33.6%)" stroke-width="1.5"></path><path d="M987.98 363.6L790.85 387.35" stroke="hsl(189.60000000000002, 75.8%, 33.6%)" stroke-width="1.5"></path><path d="M987.98 363.6L1123.13 193.77" stroke="hsl(189.60000000000002, 75.8%, 33.6%)" stroke-width="1.5"></path><path d="M987.98 363.6L815.89 515.15" stroke="hsl(189.60000000000002, 75.8%, 33.6%)" stroke-width="1.5"></path><path d="M987.98 363.6L984.12 669.82" stroke="hsl(189.60000000000002, 75.8%, 33.6%)" stroke-width="1.5"></path><path d="M987.98 363.6L1267.09 218.37" stroke="hsl(189.60000000000002, 75.8%, 33.6%)" stroke-width="1.5"></path><path d="M1459.88 -37.73L1459.88 -37.73" stroke="hsl(189.60000000000002, 75.8%, 33.6%)" stroke-width="1.5"></path><path d="M1459.88 -37.73L1393.28 50.52" stroke="hsl(189.60000000000002, 75.8%, 33.6%)" stroke-width="1.5"></path><path d="M1459.88 -37.73L1544.33 55" stroke="hsl(189.60000000000002, 75.8%, 33.6%)" stroke-width="1.5"></path><path d="M1459.88 -37.73L1596.94 -63.24" stroke="hsl(189.60000000000002, 75.8%, 33.6%)" stroke-width="1.5"></path><path d="M1450.59 701.8L1450.59 701.8" stroke="hsl(189.60000000000002, 75.8%, 33.6%)" stroke-width="1.5"></path><path d="M1450.59 701.8L1307.36 645.81" stroke="hsl(189.60000000000002, 75.8%, 33.6%)" stroke-width="1.5"></path><path d="M1450.59 701.8L1405.23 532.41" stroke="hsl(189.60000000000002, 75.8%, 33.6%)" stroke-width="1.5"></path><path d="M1450.59 701.8L1587.06 533.45" stroke="hsl(189.60000000000002, 75.8%, 33.6%)" stroke-width="1.5"></path><path d="M1450.59 701.8L1277.54 550.89" stroke="hsl(189.60000000000002, 75.8%, 33.6%)" stroke-width="1.5"></path><path d="M1575.56 388.89L1575.56 388.89" stroke="hsl(189.60000000000002, 75.8%, 33.6%)" stroke-width="1.5"></path><path d="M1575.56 388.89L1572.46 259.1" stroke="hsl(189.60000000000002, 75.8%, 33.6%)" stroke-width="1.5"></path><path d="M1575.56 388.89L1587.06 533.45" stroke="hsl(189.60000000000002, 75.8%, 33.6%)" stroke-width="1.5"></path><path d="M1575.56 388.89L1404.57 347.57" stroke="hsl(189.60000000000002, 75.8%, 33.6%)" stroke-width="1.5"></path><path d="M-83.76 550.72L-83.76 550.72" stroke="hsl(189.60000000000002, 75.8%, 33.6%)" stroke-width="1.5"></path><path d="M-83.76 550.72L40.02 488.44" stroke="hsl(189.60000000000002, 75.8%, 33.6%)" stroke-width="1.5"></path><path d="M-83.76 550.72L-77.79 697.94" stroke="hsl(189.60000000000002, 75.8%, 33.6%)" stroke-width="1.5"></path><path d="M-83.76 550.72L194.64 638.28" stroke="hsl(189.60000000000002, 75.8%, 33.6%)" stroke-width="1.5"></path><path d="M-83.76 550.72L252.68 511.92" stroke="hsl(189.60000000000002, 75.8%, 33.6%)" stroke-width="1.5"></path><path d="M-77.79 697.94L-77.79 697.94" stroke="hsl(189.60000000000002, 75.8%, 33.6%)" stroke-width="1.5"></path><path d="M40.02 488.44L40.02 488.44" stroke="hsl(189.60000000000002, 75.8%, 33.6%)" stroke-width="1.5"></path><path d="M40.02 488.44L252.68 511.92" stroke="hsl(189.60000000000002, 75.8%, 33.6%)" stroke-width="1.5"></path><path d="M40.02 488.44L194.64 638.28" stroke="hsl(189.60000000000002, 75.8%, 33.6%)" stroke-width="1.5"></path><path d="M252.68 511.92L252.68 511.92" stroke="hsl(189.60000000000002, 75.8%, 33.6%)" stroke-width="1.5"></path><path d="M252.68 511.92L357.82 554.54" stroke="hsl(189.60000000000002, 75.8%, 33.6%)" stroke-width="1.5"></path><path d="M252.68 511.92L194.64 638.28" stroke="hsl(189.60000000000002, 75.8%, 33.6%)" stroke-width="1.5"></path><path d="M252.68 511.92L404.92 661.15" stroke="hsl(189.60000000000002, 75.8%, 33.6%)" stroke-width="1.5"></path><path d="M194.64 638.28L194.64 638.28" stroke="hsl(189.60000000000002, 75.8%, 33.6%)" stroke-width="1.5"></path><path d="M194.64 638.28L357.82 554.54" stroke="hsl(189.60000000000002, 75.8%, 33.6%)" stroke-width="1.5"></path><path d="M357.82 554.54L357.82 554.54" stroke="hsl(189.60000000000002, 75.8%, 33.6%)" stroke-width="1.5"></path><path d="M357.82 554.54L404.92 661.15" stroke="hsl(189.60000000000002, 75.8%, 33.6%)" stroke-width="1.5"></path><path d="M404.92 661.15L404.92 661.15" stroke="hsl(189.60000000000002, 75.8%, 33.6%)" stroke-width="1.5"></path><path d="M404.92 661.15L505 515.21" stroke="hsl(189.60000000000002, 75.8%, 33.6%)" stroke-width="1.5"></path><path d="M404.92 661.15L194.64 638.28" stroke="hsl(189.60000000000002, 75.8%, 33.6%)" stroke-width="1.5"></path><path d="M404.92 661.15L495.4 411.13" stroke="hsl(189.60000000000002, 75.8%, 33.6%)" stroke-width="1.5"></path><path d="M495.4 411.13L495.4 411.13" stroke="hsl(189.60000000000002, 75.8%, 33.6%)" stroke-width="1.5"></path><path d="M495.4 411.13L658.78 395.39" stroke="hsl(189.60000000000002, 75.8%, 33.6%)" stroke-width="1.5"></path><path d="M495.4 411.13L357.82 554.54" stroke="hsl(189.60000000000002, 75.8%, 33.6%)" stroke-width="1.5"></path><path d="M495.4 411.13L648.2 552.2" stroke="hsl(189.60000000000002, 75.8%, 33.6%)" stroke-width="1.5"></path><path d="M648.2 552.2L648.2 552.2" stroke="hsl(189.60000000000002, 75.8%, 33.6%)" stroke-width="1.5"></path><path d="M648.2 552.2L815.89 515.15" stroke="hsl(189.60000000000002, 75.8%, 33.6%)" stroke-width="1.5"></path><path d="M648.2 552.2L827.53 645.47" stroke="hsl(189.60000000000002, 75.8%, 33.6%)" stroke-width="1.5"></path><path d="M790.85 387.35L790.85 387.35" stroke="hsl(189.60000000000002, 75.8%, 33.6%)" stroke-width="1.5"></path><path d="M790.85 387.35L815.89 515.15" stroke="hsl(189.60000000000002, 75.8%, 33.6%)" stroke-width="1.5"></path><path d="M815.89 515.15L815.89 515.15" stroke="hsl(189.60000000000002, 75.8%, 33.6%)" stroke-width="1.5"></path><path d="M815.89 515.15L827.53 645.47" stroke="hsl(189.60000000000002, 75.8%, 33.6%)" stroke-width="1.5"></path><path d="M815.89 515.15L658.78 395.39" stroke="hsl(189.60000000000002, 75.8%, 33.6%)" stroke-width="1.5"></path><path d="M815.89 515.15L984.12 669.82" stroke="hsl(189.60000000000002, 75.8%, 33.6%)" stroke-width="1.5"></path><path d="M827.53 645.47L827.53 645.47" stroke="hsl(189.60000000000002, 75.8%, 33.6%)" stroke-width="1.5"></path><path d="M827.53 645.47L984.12 669.82" stroke="hsl(189.60000000000002, 75.8%, 33.6%)" stroke-width="1.5"></path><path d="M827.53 645.47L790.85 387.35" stroke="hsl(189.60000000000002, 75.8%, 33.6%)" stroke-width="1.5"></path><path d="M827.53 645.47L658.78 395.39" stroke="hsl(189.60000000000002, 75.8%, 33.6%)" stroke-width="1.5"></path><path d="M984.12 669.82L984.12 669.82" stroke="hsl(189.60000000000002, 75.8%, 33.6%)" stroke-width="1.5"></path><path d="M984.12 669.82L1125.96 701.36" stroke="hsl(189.60000000000002, 75.8%, 33.6%)" stroke-width="1.5"></path><path d="M984.12 669.82L683.16 663.75" stroke="hsl(189.60000000000002, 75.8%, 33.6%)" stroke-width="1.5"></path><path d="M1155.1 94.45L1155.1 94.45" stroke="hsl(189.60000000000002, 75.8%, 33.6%)" stroke-width="1.5"></path><path d="M1155.1 94.45L1246.88 74.08" stroke="hsl(189.60000000000002, 75.8%, 33.6%)" stroke-width="1.5"></path><path d="M1123.13 193.77L1123.13 193.77" stroke="hsl(189.60000000000002, 75.8%, 33.6%)" stroke-width="1.5"></path><path d="M1123.13 193.77L1155.1 94.45" stroke="hsl(189.60000000000002, 75.8%, 33.6%)" stroke-width="1.5"></path><path d="M1123.13 193.77L1267.09 218.37" stroke="hsl(189.60000000000002, 75.8%, 33.6%)" stroke-width="1.5"></path><path d="M1123.13 193.77L1127.17 341.19" stroke="hsl(189.60000000000002, 75.8%, 33.6%)" stroke-width="1.5"></path><path d="M1123.13 193.77L1246.88 74.08" stroke="hsl(189.60000000000002, 75.8%, 33.6%)" stroke-width="1.5"></path><path d="M1127.17 341.19L1127.17 341.19" stroke="hsl(189.60000000000002, 75.8%, 33.6%)" stroke-width="1.5"></path><path d="M1125.96 701.36L1125.96 701.36" stroke="hsl(189.60000000000002, 75.8%, 33.6%)" stroke-width="1.5"></path><path d="M1125.96 701.36L1307.36 645.81" stroke="hsl(189.60000000000002, 75.8%, 33.6%)" stroke-width="1.5"></path><path d="M1125.96 701.36L1277.54 550.89" stroke="hsl(189.60000000000002, 75.8%, 33.6%)" stroke-width="1.5"></path><path d="M1125.96 701.36L827.53 645.47" stroke="hsl(189.60000000000002, 75.8%, 33.6%)" stroke-width="1.5"></path><path d="M1125.96 701.36L1450.59 701.8" stroke="hsl(189.60000000000002, 75.8%, 33.6%)" stroke-width="1.5"></path><path d="M1261.16 -47.85L1261.16 -47.85" stroke="hsl(189.60000000000002, 75.8%, 33.6%)" stroke-width="1.5"></path><path d="M1261.16 -47.85L1246.88 74.08" stroke="hsl(189.60000000000002, 75.8%, 33.6%)" stroke-width="1.5"></path><path d="M1261.16 -47.85L1393.28 50.52" stroke="hsl(189.60000000000002, 75.8%, 33.6%)" stroke-width="1.5"></path><path d="M1261.16 -47.85L1155.1 94.45" stroke="hsl(189.60000000000002, 75.8%, 33.6%)" stroke-width="1.5"></path><path d="M1261.16 -47.85L1459.88 -37.73" stroke="hsl(189.60000000000002, 75.8%, 33.6%)" stroke-width="1.5"></path><path d="M1261.16 -47.85L1267.09 218.37" stroke="hsl(189.60000000000002, 75.8%, 33.6%)" stroke-width="1.5"></path><path d="M1261.16 -47.85L1123.13 193.77" stroke="hsl(189.60000000000002, 75.8%, 33.6%)" stroke-width="1.5"></path><path d="M1246.88 74.08L1246.88 74.08" stroke="hsl(189.60000000000002, 75.8%, 33.6%)" stroke-width="1.5"></path><path d="M1246.88 74.08L1267.09 218.37" stroke="hsl(189.60000000000002, 75.8%, 33.6%)" stroke-width="1.5"></path><path d="M1267.09 218.37L1267.09 218.37" stroke="hsl(189.60000000000002, 75.8%, 33.6%)" stroke-width="1.5"></path><path d="M1267.09 218.37L1429.56 256.26" stroke="hsl(189.60000000000002, 75.8%, 33.6%)" stroke-width="1.5"></path><path d="M1277.54 550.89L1277.54 550.89" stroke="hsl(189.60000000000002, 75.8%, 33.6%)" stroke-width="1.5"></path><path d="M1277.54 550.89L1307.36 645.81" stroke="hsl(189.60000000000002, 75.8%, 33.6%)" stroke-width="1.5"></path><path d="M1277.54 550.89L1405.23 532.41" stroke="hsl(189.60000000000002, 75.8%, 33.6%)" stroke-width="1.5"></path><path d="M1277.54 550.89L1404.57 347.57" stroke="hsl(189.60000000000002, 75.8%, 33.6%)" stroke-width="1.5"></path><path d="M1277.54 550.89L1127.17 341.19" stroke="hsl(189.60000000000002, 75.8%, 33.6%)" stroke-width="1.5"></path><path d="M1307.36 645.81L1307.36 645.81" stroke="hsl(189.60000000000002, 75.8%, 33.6%)" stroke-width="1.5"></path><path d="M1307.36 645.81L1405.23 532.41" stroke="hsl(189.60000000000002, 75.8%, 33.6%)" stroke-width="1.5"></path><path d="M1307.36 645.81L1587.06 533.45" stroke="hsl(189.60000000000002, 75.8%, 33.6%)" stroke-width="1.5"></path><path d="M1393.28 50.52L1393.28 50.52" stroke="hsl(189.60000000000002, 75.8%, 33.6%)" stroke-width="1.5"></path><path d="M1393.28 50.52L1246.88 74.08" stroke="hsl(189.60000000000002, 75.8%, 33.6%)" stroke-width="1.5"></path><path d="M1393.28 50.52L1544.33 55" stroke="hsl(189.60000000000002, 75.8%, 33.6%)" stroke-width="1.5"></path><path d="M1429.56 256.26L1429.56 256.26" stroke="hsl(189.60000000000002, 75.8%, 33.6%)" stroke-width="1.5"></path><path d="M1429.56 256.26L1404.57 347.57" stroke="hsl(189.60000000000002, 75.8%, 33.6%)" stroke-width="1.5"></path><path d="M1429.56 256.26L1572.46 259.1" stroke="hsl(189.60000000000002, 75.8%, 33.6%)" stroke-width="1.5"></path><path d="M1429.56 256.26L1575.56 388.89" stroke="hsl(189.60000000000002, 75.8%, 33.6%)" stroke-width="1.5"></path><path d="M1404.57 347.57L1404.57 347.57" stroke="hsl(189.60000000000002, 75.8%, 33.6%)" stroke-width="1.5"></path><path d="M1404.57 347.57L1405.23 532.41" stroke="hsl(189.60000000000002, 75.8%, 33.6%)" stroke-width="1.5"></path><path d="M1404.57 347.57L1267.09 218.37" stroke="hsl(189.60000000000002, 75.8%, 33.6%)" stroke-width="1.5"></path><path d="M1405.23 532.41L1405.23 532.41" stroke="hsl(189.60000000000002, 75.8%, 33.6%)" stroke-width="1.5"></path><path d="M1596.94 -63.24L1596.94 -63.24" stroke="hsl(189.60000000000002, 75.8%, 33.6%)" stroke-width="1.5"></path><path d="M1596.94 -63.24L1544.33 55" stroke="hsl(189.60000000000002, 75.8%, 33.6%)" stroke-width="1.5"></path><path d="M1596.94 -63.24L1393.28 50.52" stroke="hsl(189.60000000000002, 75.8%, 33.6%)" stroke-width="1.5"></path><path d="M1596.94 -63.24L1572.46 259.1" stroke="hsl(189.60000000000002, 75.8%, 33.6%)" stroke-width="1.5"></path><path d="M1596.94 -63.24L1261.16 -47.85" stroke="hsl(189.60000000000002, 75.8%, 33.6%)" stroke-width="1.5"></path><path d="M1596.94 -63.24L1429.56 256.26" stroke="hsl(189.60000000000002, 75.8%, 33.6%)" stroke-width="1.5"></path><path d="M1544.33 55L1544.33 55" stroke="hsl(189.60000000000002, 75.8%, 33.6%)" stroke-width="1.5"></path><path d="M1544.33 55L1572.46 259.1" stroke="hsl(189.60000000000002, 75.8%, 33.6%)" stroke-width="1.5"></path><path d="M1572.46 259.1L1572.46 259.1" stroke="hsl(189.60000000000002, 75.8%, 33.6%)" stroke-width="1.5"></path><path d="M1572.46 259.1L1404.57 347.57" stroke="hsl(189.60000000000002, 75.8%, 33.6%)" stroke-width="1.5"></path><path d="M1572.46 259.1L1587.06 533.45" stroke="hsl(189.60000000000002, 75.8%, 33.6%)" stroke-width="1.5"></path><path d="M1587.06 533.45L1587.06 533.45" stroke="hsl(189.60000000000002, 75.8%, 33.6%)" stroke-width="1.5"></path><path d="M1587.06 533.45L1405.23 532.41" stroke="hsl(189.60000000000002, 75.8%, 33.6%)" stroke-width="1.5"></path><path d="M1587.06 533.45L1404.57 347.57" stroke="hsl(189.60000000000002, 75.8%, 33.6%)" stroke-width="1.5"></path><circle r="25" cx="108.73" cy="709.45" fill="url(#SvgjsRadialGradient1007)"></circle><circle r="25" cx="505" cy="515.21" fill="url(#SvgjsRadialGradient1007)"></circle><circle r="25" cx="658.78" cy="395.39" fill="url(#SvgjsRadialGradient1007)"></circle><circle r="25" cx="683.16" cy="663.75" fill="url(#SvgjsRadialGradient1007)"></circle><circle r="25" cx="987.98" cy="363.6" fill="url(#SvgjsRadialGradient1007)"></circle><circle r="25" cx="1459.88" cy="-37.73" fill="url(#SvgjsRadialGradient1007)"></circle><circle r="25" cx="1450.59" cy="701.8" fill="url(#SvgjsRadialGradient1007)"></circle><circle r="25" cx="1575.56" cy="388.89" fill="url(#SvgjsRadialGradient1007)"></circle><circle r="5" cx="-83.76" cy="550.72" fill="#88b2ba"></circle><circle r="5" cx="-77.79" cy="697.94" fill="#88b2ba"></circle><circle r="5" cx="40.02" cy="488.44" fill="#88b2ba"></circle><circle r="5" cx="252.68" cy="511.92" fill="#88b2ba"></circle><circle r="5" cx="194.64" cy="638.28" fill="#88b2ba"></circle><circle r="5" cx="357.82" cy="554.54" fill="#88b2ba"></circle><circle r="5" cx="404.92" cy="661.15" fill="#88b2ba"></circle><circle r="5" cx="495.4" cy="411.13" fill="#88b2ba"></circle><circle r="5" cx="648.2" cy="552.2" fill="#88b2ba"></circle><circle r="5" cx="790.85" cy="387.35" fill="#88b2ba"></circle><circle r="5" cx="815.89" cy="515.15" fill="#88b2ba"></circle><circle r="5" cx="827.53" cy="645.47" fill="#88b2ba"></circle><circle r="5" cx="984.12" cy="669.82" fill="#88b2ba"></circle><circle r="5" cx="1155.1" cy="94.45" fill="#88b2ba"></circle><circle r="5" cx="1123.13" cy="193.77" fill="#88b2ba"></circle><circle r="5" cx="1127.17" cy="341.19" fill="#88b2ba"></circle><circle r="5" cx="1125.96" cy="701.36" fill="#88b2ba"></circle><circle r="5" cx="1261.16" cy="-47.85" fill="#88b2ba"></circle><circle r="5" cx="1246.88" cy="74.08" fill="#88b2ba"></circle><circle r="5" cx="1267.09" cy="218.37" fill="#88b2ba"></circle><circle r="5" cx="1277.54" cy="550.89" fill="#88b2ba"></circle><circle r="5" cx="1307.36" cy="645.81" fill="#88b2ba"></circle><circle r="5" cx="1393.28" cy="50.52" fill="#88b2ba"></circle><circle r="5" cx="1429.56" cy="256.26" fill="#88b2ba"></circle><circle r="5" cx="1404.57" cy="347.57" fill="#88b2ba"></circle><circle r="5" cx="1405.23" cy="532.41" fill="#88b2ba"></circle><circle r="5" cx="1596.94" cy="-63.24" fill="#88b2ba"></circle><circle r="5" cx="1544.33" cy="55" fill="#88b2ba"></circle><circle r="5" cx="1572.46" cy="259.1" fill="#88b2ba"></circle><circle r="5" cx="1587.06" cy="533.45" fill="#88b2ba"></circle></g><defs><mask id="SvgjsMask1006"><rect width="1440" height="560" fill="#ffffff"></rect></mask><radialGradient id="SvgjsRadialGradient1007"><stop stop-color="#ffffff" offset="0.1"></stop><stop stop-color="rgba(16, 100, 116, 1)" offset="0.2"></stop><stop stop-color="rgba(16, 100, 116, 0)" offset="1"></stop></radialGradient></defs></svg>