<svg xmlns="http://www.w3.org/2000/svg" version="1.1" xmlns:xlink="http://www.w3.org/1999/xlink" xmlns:svgjs="http://svgjs.com/svgjs" width="1440" height="250" preserveAspectRatio="none" viewBox="0 0 1440 250"><g mask="url(&quot;#SvgjsMask1006&quot;)" fill="none"><rect width="1440" height="250" x="0" y="0" fill="rgba(20, 126, 159, 1)"></rect><path d="M25 250L275 0L594.5 0L344.5 250z" fill="url(#SvgjsLinearGradient1007)"></path><path d="M263.6 250L513.6 0L576.6 0L326.6 250z" fill="url(#SvgjsLinearGradient1007)"></path><path d="M478.20000000000005 250L728.2 0L900.7 0L650.7 250z" fill="url(#SvgjsLinearGradient1007)"></path><path d="M736.8000000000001 250L986.8000000000001 0L1268.8000000000002 0L1018.8000000000001 250z" fill="url(#SvgjsLinearGradient1007)"></path><path d="M1401 250L1151 0L1050.5 0L1300.5 250z" fill="url(#SvgjsLinearGradient1008)"></path><path d="M1162.4 250L912.4000000000001 0L598.9000000000001 0L848.9000000000001 250z" fill="url(#SvgjsLinearGradient1008)"></path><path d="M943.8 250L693.8 0L345.79999999999995 0L595.8 250z" fill="url(#SvgjsLinearGradient1008)"></path><path d="M702.1999999999999 250L452.19999999999993 0L405.69999999999993 0L655.6999999999999 250z" fill="url(#SvgjsLinearGradient1008)"></path><path d="M1277.6344324664888 250L1440 87.63443246648873L1440 250z" fill="url(#SvgjsLinearGradient1007)"></path><path d="M0 250L162.36556753351127 250L 0 87.63443246648873z" fill="url(#SvgjsLinearGradient1008)"></path></g><defs><mask id="SvgjsMask1006"><rect width="1440" height="250" fill="#ffffff"></rect></mask><linearGradient x1="0%" y1="100%" x2="100%" y2="0%" id="SvgjsLinearGradient1007"><stop stop-color="rgba(16, 100, 116, 1)" offset="0"></stop><stop stop-opacity="0" stop-color="rgba(16, 100, 116, 1)" offset="0.66"></stop></linearGradient><linearGradient x1="100%" y1="100%" x2="0%" y2="0%" id="SvgjsLinearGradient1008"><stop stop-color="rgba(16, 100, 116, 1)" offset="0"></stop><stop stop-opacity="0" stop-color="rgba(16, 100, 116, 1)" offset="0.66"></stop></linearGradient></defs></svg>