<svg xmlns="http://www.w3.org/2000/svg" version="1.1" xmlns:xlink="http://www.w3.org/1999/xlink" xmlns:svgjs="http://svgjs.dev/svgjs" width="1440" height="560" preserveAspectRatio="none" viewBox="0 0 1440 560"><g mask="url(&quot;#SvgjsMask1002&quot;)" fill="none"><rect width="1440" height="560" x="0" y="0" fill="rgba(17, 27, 34, 1)"></rect><path d="M0 26.74C16.04 -2.51 37.4 7.52 76.77 0C107.4 -5.85 108.38 0 140 0C210 0 210 0 280 0C350 0 350 0 420 0C490 0 490 0 560 0C630 0 630 0 700 0C770 0 770 0 840 0C910 0 910 0 980 0C1050 0 1050 0 1120 0C1178.74 0 1187.14 -14.38 1237.47 0C1257.14 5.62 1247.01 40 1260 40C1274.61 40 1269.93 6.5 1292.67 0C1339.93 -13.5 1346.34 0 1400 0C1470 0 1505 -35 1540 0C1575 35 1540 70 1540 140C1540 210 1540 210 1540 280C1540 336.54 1549.85 340.55 1540 393.08C1536.72 410.55 1513.75 406.04 1513.75 420C1513.75 435.17 1536.41 432.2 1540 451.34C1549.54 502.2 1567.58 533.25 1540 560C1511.58 587.58 1480.81 568.8 1428 560C1410.81 557.14 1413.91 536.67 1400 536.67C1386.33 536.67 1389.7 557.19 1372.84 560C1319.7 568.86 1316.42 560 1260 560C1190 560 1190 560 1120 560C1050 560 1050 560 980 560C910 560 910 560 840 560C770 560 770 560 700 560C630 560 630 560 560 560C508.42 560 499.36 576.88 456.84 560C429.36 549.1 438.56 504.44 420 504.44C401.32 504.44 410.09 549 382.37 560C340.09 576.78 331.18 560 280 560C210 560 210 560 140 560C70 560 35 595 0 560C-35 525 0 490 0 420C0 350 0 350 0 280C0 210 0 210 0 140C0 83.37 -22.35 67.49 0 26.74" stroke="rgba(16, 100, 116, 1)" stroke-width="2"></path><path d="M140 56C123.37 56 108.39 100.38 108.39 140C108.39 162.79 123.63 180.83 140 180.83C157.14 180.83 175.42 163.23 175.42 140C175.42 100.82 156.89 56 140 56" stroke="rgba(16, 100, 116, 1)" stroke-width="2"></path><path d="M280 248.5C258.47 248.5 245.53 258.2 243.48 280C237.46 343.95 247.57 354.95 263.85 420C265.83 427.91 272.18 425.92 280 425.92C285.38 425.92 286.9 424.83 290.24 420C337.3 351.87 383.93 332.5 380.8 280C378.81 246.75 327.13 248.5 280 248.5" stroke="rgba(16, 100, 116, 1)" stroke-width="2"></path><path d="M840 265.26C809.75 271.49 780 272.22 780 280C780 287.83 811.23 284.85 840 296.47C911.23 325.24 907.32 351.26 980 360.77C1047.32 369.58 1053.88 356.78 1120 333.1C1166.66 316.39 1205.56 300.68 1205.56 280C1205.56 261.71 1163.68 263.13 1120 255.16C1050.9 242.54 1049.62 236.31 980 238.82C909.62 241.36 909.75 250.9 840 265.26" stroke="rgba(16, 100, 116, 1)" stroke-width="2"></path><path d="M700 336C682.25 336 660 380.8 660 420C660 445.5 681.67 465.41 700 465.41C716.4 465.41 729.47 444.47 729.47 420C729.47 379.76 716.98 336 700 336" stroke="rgba(16, 100, 116, 1)" stroke-width="2"></path><path d="M0 66.07C20.54 66.07 37.5 101.2 70.75 140C107.5 182.89 102.94 186.91 140 229.44C163.94 256.91 192.75 249.08 192.75 280C192.75 339.36 172.21 350.72 140 410C134.17 420.72 116.67 415.84 116.67 420C116.67 423.95 128.57 422.36 140 426.22C210.23 449.96 220.46 436.3 280 475.21C322.82 503.19 344.73 533.62 344.73 560C344.73 576.01 312.37 560 280 560C210 560 210 560 140 560C70 560 35 595 0 560C-35 525 0 490 0 420C0 350 0 350 0 280C0 210 0 210 0 140C0 103.03 -14.84 66.07 0 66.07" stroke="rgba(16, 100, 116, 1)" stroke-width="2"></path><path d="M217.59 140C217.59 77.16 227.74 36.06 280 3.68C328.95 -26.65 350.36 15.76 420 14.58C459.25 13.92 458.59 4.08 497.78 0C528.59 -3.21 528.89 0 560 0C630 0 630 0 700 0C754.09 0 760.38 -13.28 808.18 0C830.38 6.17 823.87 38.89 840 38.89C856.44 38.89 850.62 6.31 873.33 0C920.62 -13.14 926.66 0 980 0C1050 0 1050 0 1120 0C1158.62 0 1170.88 -20.98 1197.24 0C1240.88 34.74 1223.82 111.43 1260 111.43C1300.7 111.43 1298.78 41.56 1351 0C1368.78 -14.16 1375.5 0 1400 0C1470 0 1494.71 -24.71 1540 0C1564.71 13.47 1556.79 46.14 1540 76.36C1517.9 116.14 1462.22 117.68 1462.22 140C1462.22 157.64 1524.79 128.9 1540 156.28C1563.68 198.9 1540 218.14 1540 280C1540 314.11 1554.17 319.87 1540 348.21C1519.17 389.87 1505 384.11 1470 420C1435 455.89 1436.55 457.54 1400 491.79C1361.85 527.54 1364.93 538.4 1320.6 560C1294.93 572.5 1290.3 560 1260 560C1221.7 560 1183.4 582.33 1183.4 560C1183.4 514.67 1221.43 492.16 1260 424.67C1261.43 422.16 1261.13 421.77 1263.41 420C1331.13 367.58 1333.23 369.93 1400 316.3C1420.37 299.93 1437.69 302.67 1437.69 280C1437.69 230.08 1439.91 191.33 1400 171.11C1351.07 146.33 1330.25 183.08 1260 190C1190.25 196.88 1189.36 203.61 1120 198.71C1049.36 193.71 1049.73 168.92 980 170.2C909.73 171.49 910.97 194.31 840 203.86C770.97 213.15 756.98 184.01 700 207.88C666.1 222.08 679.19 243.98 658.25 280C617.53 350.04 566.97 354.93 576.67 420C587.84 494.93 704.76 520.01 700 560C696.43 590.01 630 560 560 560C526.84 560 516.93 578.46 493.68 560C446.93 522.9 462.25 498.99 420 448.89C403.22 428.99 375.61 438.33 375.61 420C375.61 394.53 400.5 392.37 420 361.29C444.42 322.37 463.45 317.14 463.45 280C463.45 255.84 446.96 249.75 420 238.69C355.23 212.12 342.31 235.13 280 204.75C241.1 185.78 217.59 177.69 217.59 140" stroke="rgba(16, 100, 116, 1)" stroke-width="2"></path><path d="M790.88 420C812.31 390.16 811.95 365.1 840 365.1C877.69 365.1 885.12 388.03 922.35 420C955.12 448.14 952.56 451.53 980 485.33C1009.39 521.53 1036 536.67 1036 560C1036 574 1008 560 980 560C910 560 910 560 840 560C770 560 711.2 591.93 700 560C686.64 521.93 742.31 487.61 790.88 420" stroke="rgba(16, 100, 116, 1)" stroke-width="2"></path><path d="M1481.85 560C1481.85 543.58 1522.86 503.58 1540 503.58C1551.94 503.58 1554.32 546.11 1540 560C1525.24 574.32 1481.85 571.79 1481.85 560" stroke="rgba(16, 100, 116, 1)" stroke-width="2"></path><path d="M0 105.39C9.61 105.39 33.12 118.55 33.12 140C33.12 195.08 8.44 258.46 0 258.46C-8.12 258.46 0 199.23 0 140C0 122.69 -6.95 105.39 0 105.39" stroke="rgba(16, 100, 116, 1)" stroke-width="2"></path><path d="M259.76 140C259.76 119.62 259.37 102.55 280 95.79C339.49 76.3 349.94 89.18 420 87.5C489.94 85.83 494.42 73.44 560 89.09C604.42 99.69 632.76 102.49 640 140C651.18 197.95 623.86 212.46 596.84 280C583.86 312.46 578.31 340 560 340C541.78 340 546.79 306.07 523.79 280C476.79 226.72 481.32 211.24 420 181.31C359.43 151.74 346.43 178.12 280 161C266.31 157.47 259.76 152.22 259.76 140" stroke="rgba(16, 100, 116, 1)" stroke-width="2"></path><path d="M700 70C681.67 70 658 23.11 658 0C658 -11.89 679 0 700 0C714.32 0 728.64 -9.61 728.64 0C728.64 25.39 716.99 70 700 70" stroke="rgba(16, 100, 116, 1)" stroke-width="2"></path><path d="M826 140C826 138.4 833.12 136.11 840 136.11C844.79 136.11 849.33 138.38 849.33 140C849.33 141.55 844.72 142.46 840 142.46C833.05 142.46 826 141.57 826 140" stroke="rgba(16, 100, 116, 1)" stroke-width="2"></path><path d="M980 46.67C961.12 29.5 956.67 16.12 956.67 0C956.67 -7.21 968.34 0 980 0C1050 0 1050 0 1120 0C1138.51 0 1156.11 -14.41 1157.01 0C1160.48 55.59 1146.15 73.1 1128.75 140C1127.65 144.23 1124.38 142.26 1120 142.26C1115.34 142.26 1114.62 142.7 1110.67 140C1044.62 94.9 1038.12 99.5 980 46.67" stroke="rgba(16, 100, 116, 1)" stroke-width="2"></path><path d="M112 280C112 278.28 126.35 278.06 140 278.06C141.37 278.06 142.03 278.81 142.03 280C142.03 282.28 142.39 285 140 285C127.38 285 112 281.75 112 280" stroke="rgba(16, 100, 116, 1)" stroke-width="2"></path><path d="M1505 280C1505 261.41 1530.12 237.67 1540 237.67C1547.62 237.67 1540 258.84 1540 280C1540 291.66 1546.24 303.33 1540 303.33C1528.74 303.33 1505 294.24 1505 280" stroke="rgba(16, 100, 116, 1)" stroke-width="2"></path><path d="M1348.78 420C1348.78 402.68 1377.6 381.11 1400 381.11C1416.34 381.11 1426.25 401.73 1426.25 420C1426.25 434.64 1415.26 446.92 1400 446.92C1376.52 446.92 1348.78 435.58 1348.78 420" stroke="rgba(16, 100, 116, 1)" stroke-width="2"></path><path d="M46.67 560C46.67 544.93 89.28 511.72 140 504C205.94 493.97 216.49 503.23 280 524.51C300.04 531.23 307.1 548.96 307.1 560C307.1 566.7 293.55 560 280 560C210 560 210 560 140 560C93.34 560 46.67 572.93 46.67 560" stroke="rgba(16, 100, 116, 1)" stroke-width="2"></path><path d="M530.53 560C530.53 534.78 539.47 490 560 490C585.32 490 622.22 538.97 622.22 560C622.22 573.97 591.11 560 560 560C545.26 560 530.53 569.78 530.53 560" stroke="rgba(16, 100, 116, 1)" stroke-width="2"></path><path d="M816.67 560C816.67 533.41 823.07 490 840 490C859.74 490 890 537.87 890 560C890 572.87 865 560 840 560C828.34 560 816.67 568.41 816.67 560" stroke="rgba(16, 100, 116, 1)" stroke-width="2"></path><path d="M1249.43 560C1249.43 553.75 1255.15 541.33 1260 541.33C1264.62 541.33 1268.36 553.37 1268.36 560C1268.36 562.71 1264.18 560 1260 560C1254.72 560 1249.43 563.08 1249.43 560" stroke="rgba(16, 100, 116, 1)" stroke-width="2"></path><path d="M1535.69 560C1535.69 558.78 1538.73 555.82 1540 555.82C1540.88 555.82 1541.06 558.97 1540 560C1538.91 561.06 1535.69 560.87 1535.69 560" stroke="rgba(16, 100, 116, 1)" stroke-width="2"></path></g><defs><mask id="SvgjsMask1002"><rect width="1440" height="560" fill="#ffffff"></rect></mask></defs></svg>