<svg xmlns="http://www.w3.org/2000/svg" version="1.1" xmlns:xlink="http://www.w3.org/1999/xlink" xmlns:svgjs="http://svgjs.com/svgjs" width="1440" height="560" preserveAspectRatio="none" viewBox="0 0 1440 560"><g mask="url(&quot;#SvgjsMask1002&quot;)" fill="none"><rect width="1440" height="560" x="0" y="0" fill="rgba(16, 100, 116, 1)"></rect><path d="M0,485.99C91.492,478.561,179.463,448.835,254.178,395.509C326.563,343.846,370.091,266.253,415.231,189.63C465.441,104.4,542.114,21.9,532.262,-76.528C522.358,-175.473,431.494,-242.351,364.626,-315.95C299.329,-387.82,240.717,-475.222,146.985,-500.585C53.812,-525.797,-36.887,-465.323,-132.25,-450.4C-245.772,-432.635,-380.007,-479.769,-466.851,-404.529C-553.517,-329.443,-544.562,-194.133,-559.297,-80.415C-573.836,31.79,-605.185,152.232,-551.929,252.058C-499.364,350.588,-384.986,395.477,-282.165,439.057C-192.563,477.034,-96.999,493.866,0,485.99" fill="#0d505d"></path><path d="M1440 947.735C1511.089 941.9580000000001 1560.368 878.2180000000001 1615.169 832.569 1663.401 792.393 1711.029 752.6469999999999 1740.646 697.3 1771.65 639.362 1791.1109999999999 575.624 1787.782 509.996 1784.251 440.394 1766.501 369.297 1721.315 316.23900000000003 1675.961 262.984 1608.116 235.41199999999998 1540.084 219.14600000000002 1474.433 203.449 1407.93 212.048 1341.78 225.493 1270.142 240.053 1182.125 240.36700000000002 1140.387 300.384 1098.356 360.822 1151.242 444.127 1139.224 516.755 1126.801 591.827 1047.066 656.502 1069.422 729.237 1091.504 801.078 1180.786 824.432 1245.528 862.605 1307.745 899.289 1368.011 953.585 1440 947.735" fill="#13788b"></path></g><defs><mask id="SvgjsMask1002"><rect width="1440" height="560" fill="#ffffff"></rect></mask></defs></svg>