<svg xmlns="http://www.w3.org/2000/svg" version="1.1" xmlns:xlink="http://www.w3.org/1999/xlink" xmlns:svgjs="http://svgjs.com/svgjs" width="1440" height="560" preserveAspectRatio="none" viewBox="0 0 1440 560"><g mask="url(&quot;#SvgjsMask1003&quot;)" fill="none"><rect width="1440" height="560" x="0" y="0" fill="rgba(17, 27, 34, 1)"></rect><path d="M 0,134 C 57.6,140.6 172.8,170.2 288,167 C 403.2,163.8 460.8,105.6 576,118 C 691.2,130.4 748.8,252.6 864,229 C 979.2,205.4 1036.8,-6.4 1152,0 C 1267.2,6.4 1382.4,208.8 1440,261L1440 560L0 560z" fill="rgba(16, 100, 116, 1)"></path><path d="M 0,513 C 96,487.8 288,396 480,387 C 672,378 768,465.2 960,468 C 1152,470.8 1344,414.4 1440,401L1440 560L0 560z" fill="rgba(20, 126, 159, 1)"></path></g><defs><mask id="SvgjsMask1003"><rect width="1440" height="560" fill="#ffffff"></rect></mask></defs></svg>