<svg xmlns="http://www.w3.org/2000/svg" version="1.1" xmlns:xlink="http://www.w3.org/1999/xlink" xmlns:svgjs="http://svgjs.dev/svgjs" width="1440" height="560" preserveAspectRatio="none" viewBox="0 0 1440 560"><g mask="url(&quot;#SvgjsMask1000&quot;)" fill="none"><rect width="1440" height="560" x="0" y="0" fill="#0e2a47"></rect><path d="M521.35 262.75L531.93 262.75L531.93 276.79L521.35 276.79z" fill="#d3b714"></path><path d="M658.85 269.54L690.06 269.54L690.06 286.73L658.85 286.73z" stroke="#d3b714"></path><path d="M908.59 269.3L915.24 269.3L915.24 275.95L908.59 275.95z" stroke="#d3b714"></path><path d="M501.11 483.27 a1.1 1.1 0 1 0 2.2 0 a1.1 1.1 0 1 0 -2.2 0z" fill="#d3b714"></path><path d="M1100.05 451.03a33.79 33.79 0 1 0-65.8 15.42z" stroke="#d3b714"></path><path d="M258.96 217.7 a51.09 51.09 0 1 0 102.18 0 a51.09 51.09 0 1 0 -102.18 0z" fill="#037b0b"></path><path d="M361.64 257.22L364.37 257.22L364.37 299.39L361.64 299.39z" fill="#e73635"></path><path d="M1233.65 159.11 a47.28 47.28 0 1 0 94.56 0 a47.28 47.28 0 1 0 -94.56 0z" fill="#e73635"></path><path d="M931.08 235.23a10.31 10.31 0 1 0-12.12-16.68z" stroke="#037b0b"></path><path d="M1095.02 387.41a22.43 22.43 0 1 0-44.72-3.52z" stroke="#e73635"></path><path d="M1087.19 370.91a43.18 43.18 0 1 0-23.56 83.09z" fill="#037b0b"></path><path d="M272.56 55.5 a41.05 41.05 0 1 0 82.1 0 a41.05 41.05 0 1 0 -82.1 0z" fill="#d3b714"></path><path d="M1178.35 296.92L1204.18 296.92L1204.18 322.75L1178.35 322.75z" stroke="#037b0b"></path><path d="M1117.05 90.04L1136.69 90.04L1136.69 129.05L1117.05 129.05z" stroke="#d3b714"></path><path d="M404.1 3L434.66 3L434.66 12.77L404.1 12.77z" stroke="#037b0b"></path><path d="M257.7 162.71L273.13 162.71L273.13 178.14L257.7 178.14z" stroke="#d3b714"></path><path d="M56.07 248.14 a30.63 30.63 0 1 0 61.26 0 a30.63 30.63 0 1 0 -61.26 0z" fill="#d3b714"></path><path d="M399.06 330.09a53.5 53.5 0 1 0 38.5 99.83z" fill="#e73635"></path><path d="M-3.46 257.36 a37.47 37.47 0 1 0 74.94 0 a37.47 37.47 0 1 0 -74.94 0z" stroke="#037b0b"></path><path d="M1025.73 288.94L1076.82 288.94L1076.82 340.03L1025.73 340.03z" stroke="#e73635"></path><path d="M641.03 53.14L688.5 53.14L688.5 100.61L641.03 100.61z" stroke="#e73635"></path><path d="M231.73 184.45L256.21 184.45L256.21 235.42L231.73 235.42z" stroke="#e73635"></path><path d="M207.29 175.56 a54.97 54.97 0 1 0 109.94 0 a54.97 54.97 0 1 0 -109.94 0z" stroke="#d3b714"></path><path d="M359.33 531.45L387.48 531.45L387.48 559.6L359.33 559.6z" stroke="#d3b714"></path><path d="M1009.73 303.53a21.46 21.46 0 1 0 41.38-11.38z" fill="#e73635"></path><path d="M1326.66-15.05a31.04 31.04 0 1 0 48.26 39.04z" fill="#d3b714"></path><path d="M269.01 118.77a21.55 21.55 0 1 0 29.89-31.05z" fill="#037b0b"></path><path d="M545.05 404.01 a16.04 16.04 0 1 0 32.08 0 a16.04 16.04 0 1 0 -32.08 0z" stroke="#037b0b"></path><path d="M783.22 49.31a20.48 20.48 0 1 0 26.12-31.56z" fill="#d3b714"></path><path d="M604.46 187.57L646.99 187.57L646.99 230.1L604.46 230.1z" fill="#e73635"></path><path d="M959.02 281.11L1001.95 281.11L1001.95 324.04L959.02 324.04z" fill="#037b0b"></path><path d="M827.67 97.73L828.96 97.73L828.96 142.1L827.67 142.1z" stroke="#037b0b"></path><path d="M185.37 410.9 a36.3 36.3 0 1 0 72.6 0 a36.3 36.3 0 1 0 -72.6 0z" fill="#e73635"></path></g><defs><mask id="SvgjsMask1000"><rect width="1440" height="560" fill="#ffffff"></rect></mask></defs></svg>